<svg width="25" height="24" viewBox="0 0 25 24" fill="none" xmlns="http://www.w3.org/2000/svg">
<g clip-path="url(#clip0)">
<path d="M24.3169 11.6653C24.3169 5.22274 19.0942 0 12.6516 0C6.20906 0 0.986328 5.22274 0.986328 11.6653C0.986328 18.1079 6.20906 23.3306 12.6516 23.3306C19.0942 23.3306 24.3169 18.1079 24.3169 11.6653Z" fill="#45619D"/>
<path d="M14.5034 2.79932C11.3405 2.79932 10.2966 4.25051 10.2966 6.73927V8.70925H8.21875V11.6664H10.2966V20.5306H14.1287V11.6664H16.733L17.0829 8.70925H14.1287V6.95217C14.1287 6.15798 14.303 5.75501 15.5358 5.75501H17.0829V2.79932H14.5034Z" fill="white"/>
</g>
<defs>
<clipPath id="clip0">
<rect width="23.3306" height="23.3306" fill="white" transform="translate(0.986328)"/>
</clipPath>
</defs>
</svg>
