<svg width="24" height="24" viewBox="0 0 24 24" fill="none" xmlns="http://www.w3.org/2000/svg">
<mask id="mask0" style="mask-type:alpha" maskUnits="userSpaceOnUse" x="0" y="0" width="24" height="24">
<rect x="0.658203" width="23.3294" height="23.3294" rx="11.6647" fill="#FF0000"/>
</mask>
<g mask="url(#mask0)">
<path d="M2.17997 1.62001C0.351938 3.51879 0.726074 5.53583 0.726074 11.6635C0.726074 16.7522 -0.161772 21.8534 4.48488 23.0543C5.93587 23.4275 18.7922 23.4275 20.2412 23.0524C22.1759 22.5532 23.75 20.984 23.9652 18.2477C23.9952 17.8658 23.9952 5.46799 23.9642 5.07834C23.7354 2.16376 21.9413 0.484028 19.5773 0.143816C19.0355 0.0653056 18.9269 0.0420433 16.1471 0.0371969C6.28674 0.0420433 4.12528 -0.397034 2.17997 1.62001Z" fill="url(#paint0_linear)"/>
</g>
<path d="M12.3248 5.44936C9.77666 5.44936 7.3569 5.22286 6.43265 7.59301C6.05088 8.57193 6.10632 9.84326 6.10632 11.6636C6.10632 13.261 6.05509 14.7624 6.43265 15.7336C7.3548 18.1051 9.7942 17.8779 12.3234 17.8779C14.7635 17.8779 17.2794 18.1318 18.2149 15.7336C18.5974 14.7448 18.5412 13.4925 18.5412 11.6636C18.5412 9.23599 18.6753 7.66875 17.497 6.49208C16.304 5.29999 14.6905 5.44936 12.322 5.44936H12.3248ZM11.7676 6.56922C17.0829 6.5608 17.7595 5.97037 17.3861 14.1726C17.2535 17.0736 15.0428 16.7553 12.3255 16.7553C7.37094 16.7553 7.22848 16.6136 7.22848 11.6608C7.22848 6.65056 7.62148 6.57202 11.7676 6.56782V6.56922ZM15.6443 7.60073C15.2323 7.60073 14.8983 7.93451 14.8983 8.34613C14.8983 8.75776 15.2323 9.09154 15.6443 9.09154C16.0562 9.09154 16.3903 8.75776 16.3903 8.34613C16.3903 7.93451 16.0562 7.60073 15.6443 7.60073ZM12.3248 8.47235C10.5613 8.47235 9.13172 9.90146 9.13172 11.6636C9.13172 13.4258 10.5613 14.8542 12.3248 14.8542C14.0884 14.8542 15.5173 13.4258 15.5173 11.6636C15.5173 9.90146 14.0884 8.47235 12.3248 8.47235ZM12.3248 9.59222C15.0653 9.59222 15.0688 13.7351 12.3248 13.7351C9.58507 13.7351 9.58086 9.59222 12.3248 9.59222Z" fill="white"/>
<defs>
<linearGradient id="paint0_linear" x1="2.22458" y1="21.8137" x2="23.8445" y2="3.10199" gradientUnits="userSpaceOnUse">
<stop stop-color="#FFDD55"/>
<stop offset="0.5" stop-color="#FF543E"/>
<stop offset="1" stop-color="#C837AB"/>
</linearGradient>
</defs>
</svg>
