<svg width="24" height="24" viewBox="0 0 24 24" fill="none" xmlns="http://www.w3.org/2000/svg">
<rect width="23.3294" height="23.9992" rx="11.6647" fill="#0077B7"/>
<path d="M8.86877 17.8716V10.1325H6.36842V17.8716H8.86877ZM7.61906 9.07577C8.4904 9.07577 9.03357 8.48146 9.03357 7.73869C9.01742 6.97944 8.4904 6.40161 7.63543 6.40161C6.77974 6.40161 6.2207 6.97944 6.2207 7.73869C6.2207 8.48146 6.76315 9.07577 7.60254 9.07577H7.61906Z" fill="white"/>
<path d="M10.252 17.8711H12.7527V13.5493C12.7527 13.3179 12.769 13.0867 12.8352 12.9214C13.0155 12.459 13.4273 11.9806 14.1178 11.9806C15.0228 11.9806 15.3845 12.6905 15.3845 13.7307V17.8711H17.8848V13.4335C17.8848 11.0563 16.6514 9.95027 15.0061 9.95027C13.6573 9.95027 13.0648 10.7256 12.7359 11.254H12.7527V10.132H10.252C10.2851 10.8581 10.252 17.8711 10.252 17.8711Z" fill="white"/>
</svg>
