<?xml version="1.0" encoding="utf-8"?>
<!-- Generator: Adobe Illustrator 24.0.1, SVG Export Plug-In . SVG Version: 6.00 Build 0)  -->
<svg version="1.1" id="Layer_1" xmlns="http://www.w3.org/2000/svg" xmlns:xlink="http://www.w3.org/1999/xlink" x="0px" y="0px"
	 viewBox="0 0 1024 314.93" style="enable-background:new 0 0 1024 314.93;" xml:space="preserve">
<style type="text/css">
	.st0{fill:#EA9324;}
	.st1{fill:#F8BA00;}
	.st2{fill:#FFFFFF;}
	.st3{fill:#F9E1BD;}
</style>
<g>
	<g>
		<path class="st0" d="M468.42,238.56l-0.21-114.06h28.73l0.21,19.72c4.15-7.57,7.86-12.79,11.15-15.65
			c5.29-4.72,12.08-7.07,20.37-7.07h6l-0.21,30.44c-1.29,0-2.54,0-3.76,0s-2.75,0-4.61,0c-10.58,0-18.09,2.93-22.51,8.79
			c-3.43,4.43-5.15,10.58-5.15,18.44v59.39H468.42z"/>
		<path class="st0" d="M643.58,151.52v61.74c0,6.29,0.59,10.65,1.77,13.08c1.18,2.43,2.88,4,5.09,4.72v4.5h-32.37
			c-1.43-4.29-2.36-8.79-2.79-13.51c-4.86,5.15-9.29,8.79-13.29,10.93c-6.58,3.71-14.44,5.58-23.58,5.58
			c-9.58,0-17.51-2.57-23.8-7.72c-7.29-6-10.93-14.5-10.93-25.51c0-10.72,2.96-19.11,8.9-25.19c5.93-6.07,14.04-9.82,24.33-11.26
			l26.8-4.07c4.14-0.57,6.97-1.61,8.47-3.11c1.5-1.5,2.25-3.46,2.25-5.9c0-5.57-2.36-9.36-7.07-11.36c-3-1.29-7.29-1.93-12.86-1.93
			c-6.58,0-11.36,1.79-14.37,5.36c-2.14,2.57-3.43,6.08-3.86,10.51h-28.95c1.43-15.72,7.36-26.72,17.8-33.02
			c7.57-4.57,18.58-6.86,33.02-6.86c11.43,0,21.01,1.93,28.73,5.79C638.01,129.87,643.58,138.95,643.58,151.52z M614.42,194.61
			v-14.58c-1.43,1.14-3.72,2.25-6.86,3.32c-3.14,1.07-7.9,2.11-14.26,3.11c-6.36,1-10.9,2.43-13.61,4.29c-4,2.72-6,6.93-6,12.65
			c0,4.72,1.57,8.29,4.71,10.72c2.57,2,5.65,3,9.22,3c7.15,0,13.4-2.07,18.76-6.22C611.74,206.76,614.42,201.33,614.42,194.61z"/>
		<path class="st0" d="M700.61,83.13V111H670.6V83.13H700.61z M670.6,124.51h30.01v114.06H670.6V124.51z"/>
		<path class="st0" d="M822.81,156.24h-29.37c-0.86-4.86-2.29-8.29-4.29-10.29c-3.14-3.14-8.44-4.72-15.87-4.72
			c-7.29,0-12.43,1.22-15.43,3.65c-2.15,1.71-3.21,4.22-3.21,7.5c0,4.43,6.14,8.01,18.43,10.72c17.72,3.86,29.23,7,34.52,9.44
			c12.43,5.86,18.65,14.79,18.65,26.8c0,14.58-6.08,25.23-18.22,31.94c-8.86,4.86-19.44,7.29-31.73,7.29
			c-15.3,0-27.66-2.72-37.09-8.15c-11.87-6.86-17.8-17.29-17.8-31.3h30.88c0,5.29,1.89,9.4,5.68,12.33
			c3.78,2.93,10.18,4.39,19.19,4.39c6.71,0,11.79-1.43,15.22-4.29c2.57-2.14,3.86-4.64,3.86-7.5c0-4.71-6.08-8.43-18.22-11.15
			c-18.15-4-29.59-7.07-34.3-9.22c-12.3-5.71-18.44-14.72-18.44-27.02c0-10,3.21-18.44,9.64-25.3c8.15-8.58,20.3-12.86,36.45-12.86
			c14.43,0,25.79,2.22,34.09,6.65C817.03,131.3,822.81,141.66,822.81,156.24z"/>
		<path class="st0" d="M914.67,202.12h30.78c-3.72,12.72-10.58,22.23-20.58,28.51c-8.44,5.28-18.3,7.93-29.59,7.93
			c-17.58,0-31.09-4.5-40.52-13.51c-10.86-10.43-16.29-26.72-16.29-48.88c0-13,2.81-24.3,8.42-33.87
			c9.21-15.86,24.63-23.8,46.25-23.8c14.44,0,26.23,3.93,35.38,11.79c12.29,10.58,18.44,27.59,18.44,51.03l-0.22,5.36h-78.25
			c1.28,10.15,4.02,17.33,8.23,21.54c4.2,4.22,10.44,6.32,18.71,6.32c4.41,0,8.44-1.07,12.08-3.21
			C911.13,209.19,913.52,206.12,914.67,202.12z M869.34,167.17h46.52c-0.86-8.43-3.71-14.72-8.57-18.87
			c-4-3.43-8.86-5.14-14.58-5.14c-7,0-12.43,2.07-16.3,6.22C872.56,153.52,870.2,159.45,869.34,167.17z"/>
	</g>
	<g>
		<g>
			<path class="st1" d="M261.91,92.54L117.03,237.42c-2.72,2.72-7.13,2.72-9.85,0l-25.87-25.87c-1.75-1.75-1.75-4.59,0-6.34
				L227.95,58.58c1.75-1.75,4.59-1.75,6.34,0l27.62,27.62C263.66,87.95,263.66,90.79,261.91,92.54z"/>
			<path class="st1" d="M200.57,92.54l144.88,144.88c2.72,2.72,7.13,2.72,9.85,0l25.87-25.87c1.75-1.75,1.75-4.59,0-6.34
				L234.53,58.58c-1.75-1.75-4.59-1.75-6.34,0L200.57,86.2C198.82,87.95,198.82,90.79,200.57,92.54z"/>
		</g>
		<g>
			<path class="st0" d="M262.57,203.81l-70.49,70.49c-2.15,2.15-5.64,2.15-7.79,0l-27.56-27.56c-1.39-1.39-1.39-3.63,0-5.02
				l71.87-71.87c1.39-1.39,3.63-1.39,5.02,0l28.94,28.94C263.96,200.18,263.96,202.42,262.57,203.81z"/>
			<path class="st0" d="M199.87,203.81l70.49,70.49c2.15,2.15,5.64,2.15,7.79,0l27.56-27.56c1.39-1.39,1.39-3.63,0-5.02
				l-71.87-71.87c-1.39-1.39-3.63-1.39-5.02,0l-28.94,28.94C198.48,200.18,198.48,202.42,199.87,203.81z"/>
		</g>
	</g>
</g>
</svg>
