<svg width="24" height="24" viewBox="0 0 24 24" fill="none" xmlns="http://www.w3.org/2000/svg">
<g clip-path="url(#clip0)">
<path d="M11.9934 23.3301C18.436 23.3301 23.6587 18.1074 23.6587 11.6648C23.6587 5.22225 18.436 -0.000488281 11.9934 -0.000488281C5.55086 -0.000488281 0.328125 5.22225 0.328125 11.6648C0.328125 18.1074 5.55086 23.3301 11.9934 23.3301Z" fill="#139BD0"/>
<path fill-rule="evenodd" clip-rule="evenodd" d="M12.3759 14.4524C11.9266 14.89 11.4813 15.3203 11.0401 15.754C10.8858 15.9059 10.7124 15.9899 10.491 15.9782C10.3399 15.9702 10.2554 15.9038 10.209 15.7605C9.87096 14.7114 9.528 13.6649 9.19178 12.6147C9.15912 12.5129 9.1109 12.4634 9.00773 12.4315C8.21138 12.1883 7.41658 11.9395 6.62308 11.6872C6.50099 11.6483 6.37785 11.5975 6.27235 11.5257C6.10929 11.4153 6.08544 11.2351 6.23165 11.1055C6.36671 10.986 6.52795 10.8818 6.69541 10.8154C7.66881 10.4297 8.6474 10.0564 9.62444 9.67976C12.104 8.72242 14.5835 7.76587 17.0633 6.80854C17.5348 6.6263 17.8972 6.88293 17.8482 7.39284C17.8168 7.71895 17.7323 8.03987 17.6642 8.36184C17.1257 10.9041 16.5868 13.4466 16.0455 15.9884C15.917 16.5918 15.4931 16.7495 14.9964 16.3832C14.1646 15.7701 13.3335 15.1549 12.5021 14.5408C12.4625 14.512 12.4213 14.4843 12.3759 14.4524ZM10.5087 15.2244C10.518 15.2218 10.5273 15.2192 10.5367 15.2169C10.5418 15.193 10.5494 15.1697 10.5514 15.1461C10.6048 14.5699 10.6614 13.9938 10.7078 13.4165C10.7181 13.288 10.7622 13.1967 10.8589 13.1101C11.6257 12.4245 12.3878 11.7344 13.1515 11.0459C13.9969 10.2835 14.8425 9.52189 15.6847 8.75638C15.7368 8.7092 15.7586 8.62884 15.7943 8.56352C15.715 8.55496 15.63 8.52308 15.5579 8.54174C15.4597 8.56715 15.3666 8.62418 15.279 8.67939C13.4133 9.85448 11.5492 11.0316 9.68224 12.2044C9.57674 12.2708 9.55704 12.327 9.59722 12.4429C9.73487 12.8382 9.86007 13.2372 9.98995 13.6353C10.1629 14.1652 10.3358 14.6948 10.5087 15.2244Z" fill="white"/>
</g>
<defs>
<clipPath id="clip0">
<rect width="23.3306" height="23.3306" fill="white" transform="translate(0.328125 -0.000488281)"/>
</clipPath>
</defs>
</svg>
