<svg width="24" height="24" viewBox="0 0 24 24" fill="none" xmlns="http://www.w3.org/2000/svg">
<rect width="23.9992" height="23.9992" rx="11.9996" fill="#50ABF1"/>
<path d="M5.60034 16.4399C6.75913 17.1749 8.13372 17.6003 9.60723 17.6003C13.7469 17.6003 17.1026 14.2437 17.1026 10.1037C17.1026 10.0003 17.1004 9.89772 17.0964 9.79542C17.2461 9.67758 18.1722 8.93521 18.3992 8.45797C18.3992 8.45797 17.6471 8.77055 16.9111 8.84419C16.9097 8.84419 16.9079 8.84453 16.9064 8.84453C16.9064 8.84453 16.9079 8.84381 16.9104 8.84201C16.9782 8.79669 17.9264 8.15116 18.0547 7.382C18.0547 7.382 17.5228 7.66597 16.7781 7.91439C16.6548 7.95535 16.5257 7.99563 16.3926 8.03296C15.9126 7.52053 15.2302 7.20068 14.4728 7.20068C13.0199 7.20068 11.8426 8.37784 11.8426 9.82985C11.8426 10.0348 11.8662 10.2342 11.9108 10.4257C11.7077 10.4173 8.61596 10.244 6.51263 7.69638C6.51263 7.69638 5.25556 9.4128 7.26174 11.1778C7.26174 11.1778 6.65189 11.1535 6.12575 10.8391C6.12575 10.8391 5.9325 12.9185 8.20444 13.4501C8.20444 13.4501 7.75739 13.6195 7.04419 13.4987C7.04419 13.4987 7.44303 15.1789 9.46155 15.3359C9.46155 15.3359 7.8654 16.7781 5.59961 16.4397L5.60034 16.4399Z" fill="white"/>
</svg>
