<svg width="25" height="24" viewBox="0 0 25 24" fill="none" xmlns="http://www.w3.org/2000/svg">
<rect x="0.328125" y="0.000976562" width="23.9992" height="23.9992" rx="11.9996" fill="#FF0000"/>
<path d="M19.2218 8.42398C19.0503 7.78706 18.5481 7.28486 17.9112 7.11338C16.7475 6.79492 12.0931 6.79492 12.0931 6.79492C12.0931 6.79492 7.43863 6.79492 6.27501 7.10114C5.65034 7.27262 5.1359 7.78706 4.96442 8.42398C4.6582 9.5876 4.6582 12.0006 4.6582 12.0006C4.6582 12.0006 4.6582 14.4258 4.96442 15.5771C5.1359 16.2141 5.63809 16.7163 6.27501 16.8877C7.45088 17.2062 12.0931 17.2062 12.0931 17.2062C12.0931 17.2062 16.7475 17.2062 17.9112 16.9C18.5481 16.7285 19.0503 16.2263 19.2218 15.5894C19.528 14.4258 19.528 12.0128 19.528 12.0128C19.528 12.0128 19.5402 9.5876 19.2218 8.42398Z" fill="white"/>
<path d="M14.4819 11.9978L10.6113 9.76855V14.227L14.4819 11.9978Z" fill="#FF0000"/>
</svg>
