<svg width="391" height="157" viewBox="0 0 391 157" fill="none" xmlns="http://www.w3.org/2000/svg">
<rect width="391" height="157" rx="8" fill="white"/>
<g clip-path="url(#clip0_204_1825)">
<path fill-rule="evenodd" clip-rule="evenodd" d="M363.895 -24.1246C390.19 -15.7269 418.936 -10.4514 434.854 12.0778C455.022 40.6223 475.017 79.1848 458.653 109.99C442.411 140.564 429.43 145.569 395.618 153.274C368.733 159.401 286.575 166.372 262.28 153.274C238.814 140.623 235.162 90.3536 235.162 62.3702C233.773 37.3056 247.01 18.4371 262.28 1.65363C271.285 -19.0235 288.702 -26.0732 309.7 -34.3814C330.972 -42.7982 342.073 -31.0938 363.895 -24.1246Z" fill="#F7F8FF"/>
</g>
<path d="M32.9557 70.0952C40.8504 70.0952 47.2503 63.7897 47.2503 56.0114C47.2503 48.2332 40.8504 41.9276 32.9557 41.9276C25.061 41.9276 18.6611 48.2332 18.6611 56.0114C18.6611 63.7897 25.061 70.0952 32.9557 70.0952Z" fill="url(#paint0_linear_204_1825)"/>
<path fill-rule="evenodd" clip-rule="evenodd" d="M39.4435 68.5663L28.1928 59.9846L29.7815 56.0123L27.0933 52.4011L28.1928 49.1509H39.5552L47.2523 56.0475C47.2388 61.5103 44.0684 66.2423 39.4435 68.5663Z" fill="#2D48DD"/>
<path d="M40.6456 51.1278H37.3849V63.8162C36.8531 63.8162 36.3293 63.716 35.8133 63.5157C35.2971 63.3308 35.0392 63.1151 35.0392 62.8686V60.1183C33.9445 60.7963 32.7559 61.1352 31.4735 61.1352C30.1912 61.1352 29.1435 60.8117 28.3302 60.1645C27.5327 59.502 27.1339 58.6469 27.1339 57.5991C27.1339 56.7979 27.4154 56.0814 27.9784 55.4497C27.1808 55.157 26.5474 54.7255 26.0783 54.1554C25.6091 53.5699 25.3745 52.8765 25.3745 52.0754C25.3745 51.2742 25.7029 50.5422 26.3598 49.8797C27.0322 49.2172 27.9471 48.8859 29.1044 48.8859C29.9488 48.8859 30.5977 49.0709 31.0514 49.4406C31.5205 49.8104 31.7551 50.2649 31.7551 50.8043C31.7551 51.8981 31.0357 52.6686 29.597 53.1154C29.3624 52.9305 29.1903 52.6686 29.0808 52.3296C29.722 51.9136 30.0427 51.4744 30.0427 51.0122C30.0427 50.7502 29.9644 50.5422 29.8081 50.3882C29.6516 50.2187 29.4015 50.1339 29.0575 50.1339C28.7133 50.1339 28.3771 50.3189 28.0487 50.6887C27.7203 51.0584 27.5561 51.5438 27.5561 52.1447C27.5561 52.7302 27.7203 53.2232 28.0487 53.6239C28.3928 54.009 28.8229 54.2787 29.3389 54.4328C30.0269 54.0938 30.8011 53.8396 31.6613 53.67C32.2555 54.2248 32.6308 54.8025 32.7872 55.4034C31.8175 55.5883 30.9966 55.8811 30.3242 56.2818C29.6674 56.6669 29.3389 57.1138 29.3389 57.6222C29.3389 58.1153 29.5109 58.5158 29.855 58.824C30.2146 59.1322 30.7229 59.2862 31.3797 59.2862C32.0521 59.2862 32.7168 59.1014 33.3736 58.7316C34.0304 58.3618 34.5856 57.8764 35.0392 57.2755V51.1278H33.4205C32.8575 50.4806 32.5761 49.795 32.5761 49.0709H39.9183C40.4031 49.6871 40.6456 50.3728 40.6456 51.1278Z" fill="white"/>
<path d="M61.5355 58.3194C61.5355 58.7318 61.4968 59.1314 61.4195 59.518C61.3423 59.9046 61.2133 60.2526 61.0329 60.5619C60.8525 60.8583 60.6076 61.0967 60.2983 61.2771C60.0019 61.4576 59.6282 61.5478 59.1771 61.5478C58.7518 61.5478 58.3845 61.4576 58.0752 61.2771C57.7788 61.0838 57.5275 60.839 57.3213 60.5426C57.1279 60.2333 56.9862 59.8853 56.896 59.4987C56.8058 59.112 56.7607 58.7254 56.7607 58.3388C56.7607 57.9264 56.7993 57.5333 56.8767 57.1596C56.9669 56.7729 57.1022 56.4314 57.2826 56.135C57.4759 55.8386 57.7272 55.6002 58.0366 55.4198C58.3458 55.2394 58.726 55.1491 59.1771 55.1491C59.6282 55.1491 60.0019 55.2394 60.2983 55.4198C60.5947 55.6002 60.8331 55.8386 61.0136 56.135C61.2069 56.4185 61.3423 56.7536 61.4195 57.1402C61.4968 57.514 61.5355 57.9071 61.5355 58.3194ZM61.5742 62.0697V63.3456H64.1839V49.543H61.4389V54.5692H61.4002C61.0909 54.0794 60.6656 53.7121 60.1244 53.4672C59.596 53.2095 59.0354 53.0806 58.4425 53.0806C57.7079 53.0806 57.0635 53.2288 56.5093 53.5253C55.9552 53.8088 55.4912 54.189 55.1175 54.6658C54.7567 55.1427 54.4795 55.6968 54.2863 56.3283C54.1058 56.9469 54.0156 57.5913 54.0156 58.2614C54.0156 58.9574 54.1058 59.6275 54.2863 60.272C54.4795 60.9163 54.7567 61.4898 55.1175 61.9924C55.4912 62.4822 55.9616 62.8752 56.5287 63.1717C57.0958 63.4552 57.753 63.597 58.5005 63.597C59.1578 63.597 59.7442 63.481 60.2597 63.249C60.788 63.0042 61.2133 62.6111 61.5355 62.0697H61.5742ZM65.9365 49.543V63.3456H68.6816V58.1069C68.6816 57.0887 68.8492 56.3606 69.1842 55.9224C69.5193 55.4713 70.0606 55.2458 70.8081 55.2458C71.4654 55.2458 71.9229 55.452 72.1807 55.8643C72.4384 56.2639 72.5672 56.8761 72.5672 57.7008V63.3456H75.3123V57.1982C75.3123 56.5796 75.2543 56.019 75.1384 55.5164C75.0353 55.0009 74.8484 54.5692 74.5778 54.2212C74.3071 53.8603 73.9333 53.5833 73.4565 53.3899C72.9925 53.1837 72.3933 53.0806 71.6587 53.0806C71.1432 53.0806 70.6148 53.216 70.0735 53.4866C69.5322 53.7443 69.0876 54.1632 68.7397 54.7431H68.6816V49.543H65.9365ZM76.9576 56.4249C76.9962 55.7806 77.1573 55.2457 77.4408 54.8205C77.7244 54.3952 78.0853 54.0537 78.5234 53.7959C78.9616 53.5382 79.4514 53.3578 79.9926 53.2546C80.5468 53.1386 81.101 53.0806 81.6551 53.0806C82.1577 53.0806 82.6668 53.1193 83.1823 53.1966C83.6978 53.2611 84.1682 53.3964 84.5935 53.6026C85.0188 53.8088 85.3668 54.0988 85.6374 54.4725C85.908 54.8333 86.0434 55.3166 86.0434 55.9224V61.1226C86.0434 61.5736 86.0691 62.0053 86.1207 62.4177C86.1723 62.8301 86.2625 63.1395 86.3913 63.3456H83.6076C83.556 63.191 83.5109 63.0364 83.4723 62.8817C83.4465 62.7142 83.4272 62.5466 83.4143 62.3791C82.9761 62.8301 82.4606 63.1459 81.8677 63.3263C81.2749 63.5068 80.6692 63.597 80.0506 63.597C79.5738 63.597 79.1292 63.5389 78.7167 63.423C78.3043 63.307 77.9435 63.1266 77.6341 62.8817C77.3249 62.6368 77.08 62.3275 76.8996 61.9538C76.732 61.5801 76.6482 61.1354 76.6482 60.6199C76.6482 60.0528 76.7449 59.5889 76.9382 59.2281C77.1445 58.8543 77.4022 58.5579 77.7115 58.3388C78.0337 58.1197 78.3945 57.9586 78.7941 57.8555C79.2065 57.7395 79.6189 57.6493 80.0312 57.5849C80.4437 57.5204 80.8496 57.4689 81.2492 57.4302C81.6487 57.3916 82.0031 57.3335 82.3124 57.2563C82.6217 57.1789 82.8665 57.0694 83.047 56.9276C83.2274 56.7729 83.3112 56.5539 83.2983 56.2704C83.2983 55.9739 83.2467 55.7419 83.1436 55.5744C83.0534 55.3939 82.9246 55.2586 82.757 55.1684C82.6024 55.0653 82.4155 55.0009 82.1964 54.9751C81.9902 54.9365 81.7647 54.9171 81.5198 54.9171C80.9785 54.9171 80.5532 55.0331 80.2439 55.2651C79.9346 55.4971 79.7542 55.8837 79.7026 56.4249H76.9576ZM83.2983 58.4548C83.1823 58.5579 83.0341 58.6416 82.8537 58.7061C82.6861 58.7577 82.4993 58.8028 82.293 58.8414C82.0997 58.8801 81.8936 58.9123 81.6744 58.9381C81.4554 58.9638 81.2363 58.9961 81.0172 59.0347C80.811 59.0734 80.6048 59.1249 80.3986 59.1894C80.2053 59.2538 80.0312 59.344 79.8767 59.46C79.7349 59.5631 79.6189 59.6985 79.5287 59.866C79.4384 60.0335 79.3933 60.2461 79.3933 60.5039C79.3933 60.7488 79.4384 60.955 79.5287 61.1226C79.6189 61.2901 79.7413 61.4254 79.8959 61.5285C80.0506 61.6187 80.231 61.6832 80.4373 61.7218C80.6434 61.7605 80.8561 61.7798 81.0752 61.7798C81.6165 61.7798 82.0353 61.6896 82.3317 61.5091C82.6281 61.3287 82.8472 61.1161 82.989 60.8712C83.1308 60.6134 83.2146 60.3557 83.2403 60.0979C83.2789 59.8402 83.2983 59.634 83.2983 59.4794V58.4548ZM87.8519 53.3513V63.3456H90.597V58.1069C90.597 57.0887 90.7645 56.3606 91.0995 55.9224C91.4346 55.4713 91.9759 55.2458 92.7234 55.2458C93.3807 55.2458 93.8382 55.452 94.0959 55.8643C94.3538 56.2639 94.4826 56.8761 94.4826 57.7008V63.3456H97.2277V57.1982C97.2277 56.5796 97.1698 56.019 97.0533 55.5164C96.9504 55.0009 96.7637 54.5692 96.4933 54.2212C96.222 53.8603 95.8487 53.5833 95.3717 53.3899C94.9077 53.1837 94.3089 53.0806 93.574 53.0806C92.9941 53.0806 92.427 53.216 91.8729 53.4866C91.3186 53.7443 90.8676 54.1632 90.5196 54.7431H90.4617V53.3513H87.8519ZM99.3314 50.6538V63.3456H101.021V57.533H107.704V63.3456H109.392V50.6538H107.704V56.111H101.021V50.6538H99.3314ZM118.45 59.7194L117.561 60.7504L118.966 61.8703C118.397 62.1073 117.81 62.2258 117.206 62.2258C116.435 62.2258 115.772 62.0777 115.215 61.7814C114.658 61.4733 114.201 61.0704 113.846 60.5727C113.491 60.0749 113.23 59.518 113.064 58.9018C112.898 58.2736 112.816 57.6397 112.816 56.9997C112.816 56.3598 112.898 55.7318 113.064 55.1155C113.23 54.4874 113.491 53.9245 113.846 53.4269C114.201 52.9291 114.658 52.5321 115.215 52.2358C115.772 51.9277 116.435 51.7737 117.206 51.7737C117.976 51.7737 118.64 51.9277 119.197 52.2358C119.753 52.5321 120.21 52.9291 120.566 53.4269C120.921 53.9245 121.181 54.4874 121.347 55.1155C121.513 55.7318 121.597 56.3598 121.597 56.9997C121.597 57.7819 121.478 58.5344 121.241 59.2573C121.004 59.9683 120.637 60.5727 120.139 61.0704L118.45 59.7194ZM122.183 64.43L123.037 63.3634L121.366 62.048C122.005 61.4081 122.485 60.6497 122.805 59.7728C123.125 58.8958 123.285 57.9715 123.285 56.9997C123.285 56.1347 123.155 55.3051 122.894 54.5111C122.645 53.7053 122.266 52.9943 121.757 52.3781C121.247 51.7619 120.613 51.2701 119.854 50.9027C119.096 50.5353 118.213 50.3517 117.206 50.3517C116.198 50.3517 115.315 50.5353 114.557 50.9027C113.799 51.2701 113.165 51.7619 112.656 52.3781C112.146 52.9943 111.76 53.7053 111.5 54.5111C111.251 55.3051 111.126 56.1347 111.126 56.9997C111.126 57.8648 111.251 58.7003 111.5 59.5061C111.76 60.3001 112.146 61.0052 112.656 61.6214C113.165 62.2376 113.799 62.7294 114.557 63.0968C115.315 63.4523 116.198 63.6301 117.206 63.6301C118.379 63.6301 119.392 63.3812 120.246 62.8835L122.183 64.43Z" fill="#261E6B"/>
<path d="M31.266 94.284H26.338V107H23.28V94.284H18.352V91.402H31.266V94.284ZM37.9124 96.132V99.08C37.5824 99.014 37.2964 98.992 37.0324 98.992C35.5364 98.992 34.2384 99.718 34.2384 102.05V107H31.3124V96.176H34.1504V97.782C34.8104 96.352 36.3064 96.088 37.2304 96.088C37.4724 96.088 37.6924 96.11 37.9124 96.132ZM39.2037 104.052C39.2037 102.116 40.6337 101.038 42.4377 100.774L45.0997 100.378C45.7157 100.29 45.9137 99.982 45.9137 99.608C45.9137 98.838 45.3197 98.2 44.0877 98.2C42.8117 98.2 42.1077 99.014 42.0197 99.96L39.4237 99.41C39.5997 97.716 41.1617 95.846 44.0657 95.846C47.4977 95.846 48.7737 97.782 48.7737 99.96V105.284C48.7737 105.856 48.8397 106.626 48.9057 107H46.2217C46.1557 106.714 46.1117 106.12 46.1117 105.702C45.5617 106.56 44.5277 107.308 42.9217 107.308C40.6117 107.308 39.2037 105.746 39.2037 104.052ZM43.5377 105.13C44.7697 105.13 45.9137 104.536 45.9137 102.622V102.138L43.4717 102.512C42.7237 102.622 42.1297 103.04 42.1297 103.876C42.1297 104.514 42.5917 105.13 43.5377 105.13ZM62.1516 91.072V105.042C62.1516 105.768 62.1956 106.56 62.2396 107H59.4456C59.4016 106.78 59.3356 106.252 59.3356 105.746C58.8516 106.604 57.7516 107.264 56.2996 107.264C53.2196 107.264 51.0196 104.844 51.0196 101.566C51.0196 98.398 53.1536 95.912 56.2116 95.912C58.0816 95.912 58.9616 96.682 59.2696 97.254V91.072H62.1516ZM53.9676 101.566C53.9676 103.502 55.1116 104.646 56.6516 104.646C58.1476 104.646 59.3136 103.502 59.3136 101.544C59.3136 99.608 58.1476 98.53 56.6516 98.53C55.1556 98.53 53.9676 99.63 53.9676 101.566ZM68.0763 107H65.1503V96.176H68.0763V107ZM64.7983 92.634C64.7983 91.622 65.6123 90.808 66.6023 90.808C67.6143 90.808 68.4063 91.622 68.4063 92.634C68.4063 93.602 67.6143 94.416 66.6023 94.416C65.6123 94.416 64.7983 93.602 64.7983 92.634ZM73.9845 100.774V107H71.0585V96.176H73.8965V97.518C74.5565 96.396 75.8545 95.89 77.0205 95.89C79.7045 95.89 80.9365 97.804 80.9365 100.18V107H78.0105V100.686C78.0105 99.476 77.4165 98.53 76.0085 98.53C74.7325 98.53 73.9845 99.52 73.9845 100.774ZM83.1822 107.594L85.8222 106.89C86.0202 108.078 86.9662 108.936 88.3522 108.936C90.2002 108.936 91.2342 108.012 91.2342 105.922V105.13C90.7942 105.834 89.7822 106.516 88.2202 106.516C85.3382 106.516 83.1822 104.294 83.1822 101.258C83.1822 98.398 85.2502 95.978 88.2202 95.978C89.9362 95.978 90.9262 96.726 91.3002 97.452V96.176H94.1162V105.834C94.1162 108.804 92.5102 111.51 88.4402 111.51C85.4702 111.51 83.4902 109.662 83.1822 107.594ZM88.7262 104.008C90.2222 104.008 91.2782 102.93 91.2782 101.258C91.2782 99.586 90.1342 98.53 88.7262 98.53C87.2742 98.53 86.1302 99.586 86.1302 101.258C86.1302 102.952 87.2082 104.008 88.7262 104.008ZM112.262 107L110.656 105.328C109.49 106.516 108.148 107.308 106.476 107.308C103.418 107.308 101.746 105.218 101.746 103.128C101.746 101.192 102.78 100.07 104.408 98.86L104.518 98.794L104.276 98.53C103.528 97.738 102.56 96.55 102.56 95.142C102.56 92.524 104.76 91.072 106.872 91.072C109.358 91.072 111.206 92.678 111.206 95.01C111.206 96.594 110.128 97.738 109.006 98.574L108.412 99.014L110.766 101.5L114.704 97.386V101.038L112.526 103.326L116.046 107H112.262ZM106.52 104.756C107.466 104.756 108.148 104.25 108.896 103.458L106.234 100.642L105.904 100.884C105.156 101.434 104.65 102.028 104.65 102.952C104.65 103.854 105.376 104.756 106.52 104.756ZM105.332 95.054C105.332 95.714 105.86 96.352 106.256 96.748L106.674 97.21L107.444 96.638C108.17 96.11 108.434 95.56 108.434 94.988C108.434 94.152 107.774 93.492 106.85 93.492C106.124 93.492 105.332 93.998 105.332 95.054ZM126.309 104.184H128.729C131.281 104.184 133.415 102.6 133.415 99.212C133.415 95.824 131.303 94.218 128.751 94.218H126.309V104.184ZM128.839 107H123.273V91.402H128.861C133.305 91.402 136.561 94.284 136.561 99.212C136.561 104.14 133.283 107 128.839 107ZM138.268 104.052C138.268 102.116 139.698 101.038 141.502 100.774L144.164 100.378C144.78 100.29 144.978 99.982 144.978 99.608C144.978 98.838 144.384 98.2 143.152 98.2C141.876 98.2 141.172 99.014 141.084 99.96L138.488 99.41C138.664 97.716 140.226 95.846 143.13 95.846C146.562 95.846 147.838 97.782 147.838 99.96V105.284C147.838 105.856 147.904 106.626 147.97 107H145.286C145.22 106.714 145.176 106.12 145.176 105.702C144.626 106.56 143.592 107.308 141.986 107.308C139.676 107.308 138.268 105.746 138.268 104.052ZM142.602 105.13C143.834 105.13 144.978 104.536 144.978 102.622V102.138L142.536 102.512C141.788 102.622 141.194 103.04 141.194 103.876C141.194 104.514 141.656 105.13 142.602 105.13ZM154.464 92.942V96.176H156.642V98.772H154.464V103.304C154.464 104.25 154.904 104.558 155.74 104.558C156.092 104.558 156.488 104.514 156.642 104.47V106.89C156.378 107 155.85 107.154 154.992 107.154C152.88 107.154 151.56 105.9 151.56 103.81V98.772H149.602V96.176H150.152C151.296 96.176 151.824 95.428 151.824 94.46V92.942H154.464ZM158.356 104.052C158.356 102.116 159.786 101.038 161.59 100.774L164.252 100.378C164.868 100.29 165.066 99.982 165.066 99.608C165.066 98.838 164.472 98.2 163.24 98.2C161.964 98.2 161.26 99.014 161.172 99.96L158.576 99.41C158.752 97.716 160.314 95.846 163.218 95.846C166.65 95.846 167.926 97.782 167.926 99.96V105.284C167.926 105.856 167.992 106.626 168.058 107H165.374C165.308 106.714 165.264 106.12 165.264 105.702C164.714 106.56 163.68 107.308 162.074 107.308C159.764 107.308 158.356 105.746 158.356 104.052ZM162.69 105.13C163.922 105.13 165.066 104.536 165.066 102.622V102.138L162.624 102.512C161.876 102.622 161.282 103.04 161.282 103.876C161.282 104.514 161.744 105.13 162.69 105.13ZM186.254 107L184.956 103.436H178.62L177.322 107H174.11L180.094 91.402H183.614L189.554 107H186.254ZM181.788 94.768L179.632 100.664H183.944L181.788 94.768ZM194.652 98.508H197.05C198.568 98.508 199.492 97.628 199.492 96.286C199.492 94.9 198.568 94.042 197.05 94.042H194.652V98.508ZM197.424 101.126H194.63V107H191.594V91.402H197.424C200.504 91.402 202.55 93.448 202.55 96.264C202.55 99.102 200.504 101.126 197.424 101.126ZM207.994 107H204.914V91.402H207.994V107ZM210.432 103.986L212.94 103.436C213.006 104.294 213.644 105.086 214.92 105.086C215.888 105.086 216.35 104.58 216.35 104.008C216.35 103.524 216.02 103.128 215.184 102.952L213.754 102.622C211.664 102.16 210.718 100.906 210.718 99.388C210.718 97.452 212.434 95.846 214.766 95.846C217.846 95.846 218.88 97.804 219.012 98.97L216.57 99.52C216.482 98.882 216.02 98.068 214.788 98.068C214.018 98.068 213.402 98.53 213.402 99.146C213.402 99.674 213.798 100.004 214.392 100.114L215.932 100.444C218.066 100.884 219.144 102.182 219.144 103.766C219.144 105.526 217.78 107.33 214.942 107.33C211.686 107.33 210.564 105.218 210.432 103.986Z" fill="#261E6B"/>
<g opacity="0.5">
<path d="M246.036 103.669L248.282 104.852L270.777 91.871C271.141 91.6587 271.809 91.689 272.234 91.9317L311.031 114.315C311.395 114.103 313.095 113.284 313.095 113.284L312.275 115.407C312.245 115.498 312.154 115.589 312.033 115.65L288.354 129.328C287.99 129.541 287.322 129.51 286.897 129.268L247.189 106.369C247.007 106.278 246.916 106.126 246.855 106.005L246.036 103.669Z" fill="white"/>
<path d="M246.371 104.033L287.05 127.508C287.505 127.751 288.173 127.781 288.567 127.569L312.853 113.556C313.248 113.344 313.187 112.95 312.732 112.677L272.053 89.2015C271.598 88.9589 270.93 88.9286 270.535 89.1409L246.249 103.153C245.885 103.366 245.915 103.76 246.371 104.033Z" fill="#F4F3F9"/>
<path d="M246.372 103.851L287.051 127.326C287.506 127.569 288.174 127.599 288.568 127.387L312.854 113.375C312.976 113.284 313.067 113.193 313.097 113.102C313.128 113.284 313.067 113.435 312.854 113.557L288.568 127.569C288.174 127.781 287.506 127.751 287.051 127.508L246.372 104.033C246.068 103.881 245.977 103.639 246.007 103.457C246.068 103.578 246.19 103.73 246.372 103.851Z" fill="white"/>
<path d="M299.344 122.413V121.958C299.344 121.928 299.314 121.898 299.283 121.928L297.705 122.838C297.674 122.868 297.644 122.899 297.644 122.959V123.414C297.644 123.445 297.674 123.475 297.705 123.445L299.283 122.535C299.314 122.504 299.344 122.474 299.344 122.413Z" fill="#565759"/>
<path d="M296.976 123.778V123.323C296.976 123.292 296.946 123.262 296.915 123.292L295.337 124.202C295.306 124.233 295.276 124.263 295.276 124.324V124.779C295.276 124.809 295.306 124.839 295.337 124.809L296.915 123.899C296.946 123.869 296.976 123.808 296.976 123.778Z" fill="#565759"/>
<path d="M306.508 112.253L272.689 92.7504C272.477 92.6291 272.173 92.6291 271.961 92.7504L259.939 99.696C259.757 99.787 259.757 100.06 259.939 100.151L293.727 119.653C293.94 119.774 294.243 119.774 294.456 119.653L306.508 112.708C306.69 112.586 306.69 112.344 306.508 112.253Z" fill="#F0F0F0"/>
<path d="M306.509 112.677L306.388 112.738L272.691 93.3267C272.478 93.2054 272.175 93.2054 271.962 93.3267L260.032 100.212L259.911 100.151C259.728 100.06 259.728 99.787 259.911 99.696L271.962 92.7504C272.175 92.6291 272.478 92.6291 272.691 92.7504L306.509 112.253C306.691 112.344 306.691 112.586 306.509 112.677Z" fill="#C8C8C8"/>
<path d="M271.414 116.953L262.307 111.706C261.943 111.494 261.943 111.16 262.307 110.948L268.53 107.339C268.894 107.127 269.471 107.127 269.836 107.339L278.943 112.586C279.307 112.798 279.307 113.132 278.943 113.344L272.719 116.953C272.325 117.166 271.748 117.166 271.414 116.953Z" fill="#DFDFDF"/>
<path d="M278.915 112.92L269.808 107.673C269.443 107.46 268.867 107.46 268.502 107.673L262.279 111.282C262.158 111.342 262.097 111.433 262.067 111.494C261.975 111.312 262.036 111.1 262.279 110.978L268.502 107.369C268.867 107.157 269.443 107.157 269.808 107.369L278.915 112.616C279.158 112.768 279.218 112.95 279.127 113.132C279.097 113.071 279.036 112.98 278.915 112.92Z" fill="#C8C8C8"/>
<rect width="2.66654" height="2.49988" rx="0.223474" transform="matrix(0.866025 0.5 -0.866025 0.5 272.588 94.2069)" fill="#BAB8B8"/>
<rect width="2.66654" height="2.49988" rx="0.223474" transform="matrix(0.866025 0.5 -0.866025 0.5 266.814 97.5398)" fill="#BAB8B8"/>
<rect width="4.49979" height="2.49988" rx="0.223474" transform="matrix(0.866025 0.5 -0.866025 0.5 263.928 99.2066)" fill="#BAB8B8"/>
<rect width="2.49988" height="2.49988" rx="0.223474" transform="matrix(0.866025 0.5 -0.866025 0.5 286.589 112.289)" fill="#BAB8B8"/>
<rect width="2.49988" height="2.49988" rx="0.223474" transform="matrix(0.866025 0.5 -0.866025 0.5 289.906 114.206)" fill="#BAB8B8"/>
<rect width="2.49988" height="2.49988" rx="0.223474" transform="matrix(0.866025 0.5 -0.866025 0.5 293.226 116.122)" fill="#BAB8B8"/>
<rect width="18.9991" height="2.49988" rx="0.223474" transform="matrix(0.866025 0.5 -0.866025 0.5 268.979 102.123)" fill="#BAB8B8"/>
<rect width="2.66654" height="2.49988" rx="0.223474" transform="matrix(0.866025 0.5 -0.866025 0.5 275.907 96.1231)" fill="#BAB8B8"/>
<rect width="2.66654" height="2.49988" rx="0.223474" transform="matrix(0.866025 0.5 -0.866025 0.5 270.134 99.4564)" fill="#BAB8B8"/>
<rect width="2.66654" height="2.49988" rx="0.223474" transform="matrix(0.866025 0.5 -0.866025 0.5 271.289 96.7901)" fill="#BAB8B8"/>
<rect width="2.66654" height="2.49988" rx="0.223474" transform="matrix(0.866025 0.5 -0.866025 0.5 274.609 98.7067)" fill="#BAB8B8"/>
<rect width="2.66654" height="2.49988" rx="0.223474" transform="matrix(0.866025 0.5 -0.866025 0.5 277.926 100.623)" fill="#BAB8B8"/>
<rect width="2.66654" height="2.49988" rx="0.223474" transform="matrix(0.866025 0.5 -0.866025 0.5 281.249 102.539)" fill="#BAB8B8"/>
<rect width="2.66654" height="2.49988" rx="0.223474" transform="matrix(0.866025 0.5 -0.866025 0.5 284.565 104.456)" fill="#BAB8B8"/>
<rect width="2.66654" height="2.49988" rx="0.223474" transform="matrix(0.866025 0.5 -0.866025 0.5 287.887 106.372)" fill="#BAB8B8"/>
<rect width="2.66654" height="2.49988" rx="0.223474" transform="matrix(0.866025 0.5 -0.866025 0.5 291.206 108.29)" fill="#BAB8B8"/>
<rect width="2.66654" height="2.49988" rx="0.223474" transform="matrix(0.866025 0.5 -0.866025 0.5 294.526 110.206)" fill="#BAB8B8"/>
<rect width="2.66654" height="2.49988" rx="0.223474" transform="matrix(0.866025 0.5 -0.866025 0.5 297.845 112.123)" fill="#BAB8B8"/>
<rect width="2.66654" height="2.49988" rx="0.223474" transform="matrix(0.866025 0.5 -0.866025 0.5 279.227 98.0402)" fill="#BAB8B8"/>
<rect width="2.66654" height="2.49988" rx="0.223474" transform="matrix(0.866025 0.5 -0.866025 0.5 273.453 101.373)" fill="#BAB8B8"/>
<rect width="2.66654" height="2.49988" rx="0.223474" transform="matrix(0.866025 0.5 -0.866025 0.5 282.547 99.9568)" fill="#BAB8B8"/>
<rect width="2.66654" height="2.49988" rx="0.223474" transform="matrix(0.866025 0.5 -0.866025 0.5 276.772 103.29)" fill="#BAB8B8"/>
<rect width="2.66654" height="2.49988" rx="0.223474" transform="matrix(0.866025 0.5 -0.866025 0.5 285.866 101.873)" fill="#BAB8B8"/>
<rect width="2.66654" height="2.49988" rx="0.223474" transform="matrix(0.866025 0.5 -0.866025 0.5 280.091 105.206)" fill="#BAB8B8"/>
<rect width="2.66654" height="2.49988" rx="0.223474" transform="matrix(0.866025 0.5 -0.866025 0.5 289.187 103.79)" fill="#BAB8B8"/>
<rect width="2.66654" height="2.49988" rx="0.223474" transform="matrix(0.866025 0.5 -0.866025 0.5 283.412 107.123)" fill="#BAB8B8"/>
<rect width="2.66654" height="2.49988" rx="0.223474" transform="matrix(0.866025 0.5 -0.866025 0.5 292.504 105.706)" fill="#BAB8B8"/>
<rect width="2.66654" height="2.49988" rx="0.223474" transform="matrix(0.866025 0.5 -0.866025 0.5 286.732 109.039)" fill="#BAB8B8"/>
<rect width="2.66654" height="2.49988" rx="0.223474" transform="matrix(0.866025 0.5 -0.866025 0.5 295.823 107.623)" fill="#BAB8B8"/>
<rect width="2.66654" height="2.49988" rx="0.223474" transform="matrix(0.866025 0.5 -0.866025 0.5 290.052 110.956)" fill="#BAB8B8"/>
<rect width="2.66654" height="2.49988" rx="0.223474" transform="matrix(0.866025 0.5 -0.866025 0.5 299.144 109.539)" fill="#BAB8B8"/>
<rect width="2.66654" height="2.49988" rx="0.223474" transform="matrix(0.866025 0.5 -0.866025 0.5 293.372 112.872)" fill="#BAB8B8"/>
<rect width="2.66654" height="2.49988" rx="0.223474" transform="matrix(0.866025 0.5 -0.866025 0.5 302.463 111.456)" fill="#BAB8B8"/>
<rect width="2.66654" height="2.49988" rx="0.223474" transform="matrix(0.866025 0.5 -0.866025 0.5 296.689 114.789)" fill="#BAB8B8"/>
<rect width="2.66654" height="2.49988" rx="0.223474" transform="matrix(0.866025 0.5 -0.866025 0.5 272.587 93.9795)" fill="#DCDCDC"/>
<rect width="2.66654" height="2.49988" rx="0.223474" transform="matrix(0.866025 0.5 -0.866025 0.5 266.813 97.3135)" fill="#DCDCDC"/>
<rect width="4.49979" height="2.49988" rx="0.223474" transform="matrix(0.866025 0.5 -0.866025 0.5 263.927 98.9798)" fill="#DCDCDC"/>
<rect width="2.49988" height="2.49988" rx="0.223474" transform="matrix(0.866025 0.5 -0.866025 0.5 286.588 112.063)" fill="#DCDCDC"/>
<rect width="2.49988" height="2.49988" rx="0.223474" transform="matrix(0.866025 0.5 -0.866025 0.5 289.905 113.979)" fill="#DCDCDC"/>
<rect width="2.49988" height="2.49988" rx="0.223474" transform="matrix(0.866025 0.5 -0.866025 0.5 293.225 115.896)" fill="#DCDCDC"/>
<rect width="18.9991" height="2.49988" rx="0.223474" transform="matrix(0.866025 0.5 -0.866025 0.5 268.978 101.896)" fill="#DCDCDC"/>
<rect width="2.66654" height="2.49988" rx="0.223474" transform="matrix(0.866025 0.5 -0.866025 0.5 275.907 95.8966)" fill="#DCDCDC"/>
<rect width="2.66654" height="2.49988" rx="0.223474" transform="matrix(0.866025 0.5 -0.866025 0.5 270.133 99.2297)" fill="#DCDCDC"/>
<rect width="2.66654" height="2.49988" rx="0.223474" transform="matrix(0.866025 0.5 -0.866025 0.5 271.289 96.563)" fill="#DCDCDC"/>
<rect width="2.66654" height="2.49988" rx="0.223474" transform="matrix(0.866025 0.5 -0.866025 0.5 274.607 98.4799)" fill="#DCDCDC"/>
<rect width="2.66654" height="2.49988" rx="0.223474" transform="matrix(0.866025 0.5 -0.866025 0.5 277.926 100.397)" fill="#DCDCDC"/>
<rect width="2.66654" height="2.49988" rx="0.223474" transform="matrix(0.866025 0.5 -0.866025 0.5 281.246 102.313)" fill="#DCDCDC"/>
<rect width="2.66654" height="2.49988" rx="0.223474" transform="matrix(0.866025 0.5 -0.866025 0.5 284.565 104.229)" fill="#DCDCDC"/>
<rect width="2.66654" height="2.49988" rx="0.223474" transform="matrix(0.866025 0.5 -0.866025 0.5 287.887 106.146)" fill="#DCDCDC"/>
<rect width="2.66654" height="2.49988" rx="0.223474" transform="matrix(0.866025 0.5 -0.866025 0.5 291.206 108.063)" fill="#DCDCDC"/>
<rect width="2.66654" height="2.49988" rx="0.223474" transform="matrix(0.866025 0.5 -0.866025 0.5 294.526 109.979)" fill="#DCDCDC"/>
<rect width="2.66654" height="2.49988" rx="0.223474" transform="matrix(0.866025 0.5 -0.866025 0.5 297.845 111.896)" fill="#DCDCDC"/>
<rect width="2.66654" height="2.49988" rx="0.223474" transform="matrix(0.866025 0.5 -0.866025 0.5 279.227 97.813)" fill="#DCDCDC"/>
<rect width="2.66654" height="2.49988" rx="0.223474" transform="matrix(0.866025 0.5 -0.866025 0.5 273.452 101.146)" fill="#DCDCDC"/>
<rect width="2.66654" height="2.49988" rx="0.223474" transform="matrix(0.866025 0.5 -0.866025 0.5 282.545 99.7296)" fill="#DCDCDC"/>
<rect width="2.66654" height="2.49988" rx="0.223474" transform="matrix(0.866025 0.5 -0.866025 0.5 276.772 103.063)" fill="#DCDCDC"/>
<rect width="2.66654" height="2.49988" rx="0.223474" transform="matrix(0.866025 0.5 -0.866025 0.5 285.865 101.647)" fill="#DCDCDC"/>
<rect width="2.66654" height="2.49988" rx="0.223474" transform="matrix(0.866025 0.5 -0.866025 0.5 280.091 104.98)" fill="#DCDCDC"/>
<rect width="2.66654" height="2.49988" rx="0.223474" transform="matrix(0.866025 0.5 -0.866025 0.5 289.186 103.563)" fill="#DCDCDC"/>
<rect width="2.66654" height="2.49988" rx="0.223474" transform="matrix(0.866025 0.5 -0.866025 0.5 283.411 106.896)" fill="#DCDCDC"/>
<rect width="2.66654" height="2.49988" rx="0.223474" transform="matrix(0.866025 0.5 -0.866025 0.5 292.504 105.479)" fill="#DCDCDC"/>
<rect width="2.66654" height="2.49988" rx="0.223474" transform="matrix(0.866025 0.5 -0.866025 0.5 286.732 108.813)" fill="#DCDCDC"/>
<rect width="2.66654" height="2.49988" rx="0.223474" transform="matrix(0.866025 0.5 -0.866025 0.5 295.824 107.396)" fill="#DCDCDC"/>
<rect width="2.66654" height="2.49988" rx="0.223474" transform="matrix(0.866025 0.5 -0.866025 0.5 290.052 110.729)" fill="#DCDCDC"/>
<rect width="2.66654" height="2.49988" rx="0.223474" transform="matrix(0.866025 0.5 -0.866025 0.5 299.143 109.313)" fill="#DCDCDC"/>
<rect width="2.66654" height="2.49988" rx="0.223474" transform="matrix(0.866025 0.5 -0.866025 0.5 293.371 112.646)" fill="#DCDCDC"/>
<rect width="2.66654" height="2.49988" rx="0.223474" transform="matrix(0.866025 0.5 -0.866025 0.5 302.463 111.229)" fill="#DCDCDC"/>
<rect width="2.66654" height="2.49988" rx="0.223474" transform="matrix(0.866025 0.5 -0.866025 0.5 296.689 114.562)" fill="#DCDCDC"/>
<g opacity="0.11">
<path opacity="0.11" d="M272.024 89.1711L312.703 112.646C313.158 112.889 313.826 112.919 314.22 112.707L338.506 98.6947C338.901 98.4824 338.84 98.0881 338.385 97.8151L297.706 74.3397C297.251 74.0971 296.583 74.0667 296.188 74.279L271.902 88.2915C271.508 88.5341 271.568 88.8981 272.024 89.1711Z" fill="#F2F2F2"/>
<path opacity="0.11" d="M312.824 93.3872L303.717 88.1401C303.352 87.9278 303.352 87.5942 303.717 87.3819L309.94 83.7726C310.304 83.5603 310.881 83.5603 311.245 83.7726L320.352 89.0197C320.717 89.232 320.717 89.5656 320.352 89.7779L314.129 93.3872C313.765 93.5692 313.188 93.5692 312.824 93.3872Z" fill="#FDFDFD"/>
<path opacity="0.11" d="M320.352 89.3529L311.245 84.1058C310.88 83.8935 310.304 83.8935 309.939 84.1058L303.716 87.715C303.595 87.7757 303.534 87.8667 303.504 87.9274C303.413 87.7454 303.473 87.5331 303.716 87.4117L309.939 83.8025C310.304 83.5902 310.88 83.5902 311.245 83.8025L320.352 89.0496C320.595 89.2012 320.655 89.3832 320.564 89.5652C320.534 89.4742 320.443 89.4135 320.352 89.3529Z" fill="#C8C8C8"/>
<g opacity="0.11">
<path opacity="0.11" d="M324.36 101.606L290.542 82.0738C290.33 81.9525 290.026 81.9525 289.813 82.0738L277.762 89.0194C277.579 89.1104 277.579 89.3833 277.762 89.4743L311.58 109.007C311.792 109.128 312.096 109.128 312.308 109.007L324.36 102.061C324.542 101.94 324.542 101.697 324.36 101.606Z" fill="#DCDCDC"/>
<path opacity="0.11" d="M324.36 102.031L324.239 102.092L290.542 82.6503C290.33 82.529 290.026 82.529 289.813 82.6503L277.883 89.5656L277.762 89.5049C277.579 89.4139 277.579 89.141 277.762 89.05L289.813 82.1044C290.026 81.9831 290.33 81.9831 290.542 82.1044L324.36 101.607C324.542 101.698 324.512 101.94 324.36 102.031Z" fill="#C8C8C8"/>
<g opacity="0.11">
<path opacity="0.11" d="M280.918 88.5644L310.365 105.579L309.211 106.247L279.765 89.2619L280.918 88.5644Z" fill="#828282"/>
<path opacity="0.11" d="M284.014 86.7745L312.034 102.94L310.85 103.608L282.861 87.4418L284.014 86.7745Z" fill="#828282"/>
<path opacity="0.11" d="M314.129 104.154L316.74 105.64L315.556 106.308L312.945 104.821L314.129 104.154Z" fill="#828282"/>
<path opacity="0.11" d="M311.792 106.398L313.614 107.43L312.46 108.097L310.639 107.066L311.792 106.398Z" fill="#828282"/>
<path opacity="0.11" d="M285.959 85.6528L318.684 104.518L317.5 105.185L284.805 86.3201L285.959 85.6528Z" fill="#828282"/>
<path opacity="0.11" d="M287.931 84.5304L320.626 103.396L319.442 104.063L286.747 85.228L287.931 84.5304Z" fill="#828282"/>
<path opacity="0.11" d="M289.873 83.4082L322.568 102.273L321.384 102.941L288.689 84.1058L289.873 83.4082Z" fill="#828282"/>
</g>
</g>
</g>
</g>
<path d="M314.066 111.353L315.906 84.2305C315.936 83.7969 315.711 83.3856 315.33 83.176L274.033 60.4432C273.288 60.0333 272.377 60.572 272.377 61.422V87.862C272.377 88.2565 272.585 88.6217 272.924 88.8229L312.381 112.238C313.097 112.663 314.01 112.184 314.066 111.353Z" fill="#C1C1C1"/>
<path d="M313.321 112.445L315.263 84.1762C315.275 84.0018 315.184 83.8364 315.03 83.7529L272.365 60.5607C272.068 60.3988 271.705 60.6144 271.705 60.9534V88.5503C271.705 88.7089 271.789 88.8557 271.926 88.9359L312.649 112.8C312.935 112.968 313.298 112.776 313.321 112.445Z" fill="#E4E4E4"/>
<path d="M274.275 87.2819V66.0512C274.275 65.3759 274.995 64.9445 275.591 65.2629L312.425 84.9576C312.736 85.1239 312.92 85.4573 312.896 85.809L311.361 107.501C311.314 108.158 310.598 108.541 310.026 108.214L274.726 88.0582C274.447 87.8991 274.275 87.6028 274.275 87.2819Z" fill="#4864FC"/>
<path d="M341.089 79.1979L350.251 84.8965L338.519 92.3829" stroke="#BED2F8" stroke-width="0.223474"/>
<path d="M307.008 57.2973L331.006 71.1527" stroke="#BED2F8" stroke-width="0.335211"/>
<path d="M337.4 73.8345L361.399 87.6899" stroke="#BED2F8" stroke-width="0.335211"/>
<path d="M315.947 84.5617L336.635 72.2706" stroke="#BED2F8" stroke-width="0.335211"/>
<path d="M339.412 67.9125L367.475 51.7106" stroke="#BED2F8" stroke-width="0.335211"/>
<path d="M326.496 65.805L316.674 60.1341L317.819 55.9754" stroke="#BED2F8" stroke-opacity="0.5" stroke-width="0.335211"/>
<circle cx="1.34287" cy="1.34287" r="0.895918" transform="matrix(0.866025 -0.5 0.866025 0.5 315.501 55.065)" stroke="#A2C1FD" stroke-opacity="0.5" stroke-width="0.893896"/>
<rect width="26.8367" height="18.1748" rx="0.893896" transform="matrix(0.866025 0.5 -2.20305e-08 1 298.294 81.88)" fill="#37325C"/>
<path d="M298.294 82.7739C298.294 82.2802 298.641 82.0801 299.069 82.327L320.762 94.8515C321.189 95.0983 321.536 95.6986 321.536 96.1923L321.536 97.9313L298.294 84.5129L298.294 82.7739Z" fill="#8A8896"/>
<path d="M303.88 91.7401L311.005 95.8537" stroke="#A7A7A7" stroke-width="0.446948" stroke-linecap="round" stroke-linejoin="round"/>
<path d="M303.88 93.9249L307.508 96.0191" stroke="#A7A7A7" stroke-width="0.446948" stroke-linecap="round" stroke-linejoin="round"/>
<path d="M303.88 92.7596L307.249 94.7043" stroke="#92E3A9" stroke-width="0.446948" stroke-linecap="round" stroke-linejoin="round"/>
<path d="M308.025 95.1527L309.839 96.1998" stroke="#92E3A9" stroke-width="0.446948" stroke-linecap="round" stroke-linejoin="round"/>
<path d="M311.007 96.8728L312.821 97.92" stroke="#92E3A9" stroke-width="0.446948" stroke-linecap="round" stroke-linejoin="round"/>
<path d="M303.88 94.9438L307.249 96.8884" stroke="#A7A7A7" stroke-width="0.446948" stroke-linecap="round" stroke-linejoin="round"/>
<path d="M308.025 97.3375L309.839 98.3846" stroke="#A7A7A7" stroke-width="0.446948" stroke-linecap="round" stroke-linejoin="round"/>
<path d="M311.007 99.0579L312.821 100.105" stroke="#92E3A9" stroke-width="0.446948" stroke-linecap="round" stroke-linejoin="round"/>
<path d="M303.88 97.1286L307.249 99.0732" stroke="#A7A7A7" stroke-width="0.446948" stroke-linecap="round" stroke-linejoin="round"/>
<path d="M308.025 99.5216L309.839 100.569" stroke="#92E3A9" stroke-width="0.446948" stroke-linecap="round" stroke-linejoin="round"/>
<path d="M311.007 101.242L312.821 102.289" stroke="#A7A7A7" stroke-width="0.446948" stroke-linecap="round" stroke-linejoin="round"/>
<path d="M305.954 99.3449L308.674 100.916" stroke="#A7A7A7" stroke-width="0.446948" stroke-linecap="round" stroke-linejoin="round"/>
<path d="M309.191 101.215L310.616 102.037" stroke="#A7A7A7" stroke-width="0.446948" stroke-linecap="round" stroke-linejoin="round"/>
<path d="M311.396 102.486L312.822 103.309" stroke="#A7A7A7" stroke-width="0.446948" stroke-linecap="round" stroke-linejoin="round"/>
<path d="M305.954 100.51L308.674 102.08" stroke="#A7A7A7" stroke-width="0.446948" stroke-linecap="round" stroke-linejoin="round"/>
<path d="M309.191 102.38L310.616 103.203" stroke="#A7A7A7" stroke-width="0.446948" stroke-linecap="round" stroke-linejoin="round"/>
<path d="M311.396 103.651L312.822 104.474" stroke="#A7A7A7" stroke-width="0.446948" stroke-linecap="round" stroke-linejoin="round"/>
<path d="M303.88 100.624L311.005 104.737" stroke="#92E3A9" stroke-width="0.446948" stroke-linecap="round" stroke-linejoin="round"/>
<path d="M304.012 90.3953L304.659 90.4409L304.659 90.536L304.114 90.4904L304.659 91.074L304.659 91.1691L304.012 90.4667L304.012 90.3953Z" fill="#A7A7A7" stroke="#A7A7A7" stroke-width="0.223474" stroke-miterlimit="10"/>
<path d="M305.046 91.539L305.468 90.6174L305.564 90.6731L305.143 91.5953L305.046 91.539Z" fill="#A7A7A7" stroke="#A7A7A7" stroke-width="0.223474" stroke-miterlimit="10"/>
<path d="M306.731 92.0391L305.954 91.917L305.954 91.8219L306.614 91.9345L305.954 91.2839L305.954 91.1889L306.731 91.9643L306.731 92.0391Z" fill="#A7A7A7" stroke="#A7A7A7" stroke-width="0.223474" stroke-miterlimit="10"/>
<path d="M340.53 72.9776L350.251 77.791L356.061 76.4048" stroke="#BED2F8" stroke-opacity="0.5" stroke-width="0.335211"/>
<path d="M357.283 75.6227C356.859 75.3782 356.16 75.3769 355.721 75.6303C355.283 75.8837 355.285 76.2874 355.708 76.5318C356.132 76.7763 356.831 76.7776 357.27 76.5242C357.709 76.2708 357.706 75.8672 357.283 75.6227Z" stroke="#A2C1FD" stroke-opacity="0.5" stroke-width="0.893896"/>
<path d="M349.693 64.8395L361.305 58.1353L369.82 58.9175" stroke="#BED2F8" stroke-opacity="0.5" stroke-width="0.335211"/>
<circle cx="1.34084" cy="1.34084" r="0.893896" transform="matrix(0.866025 0.5 -0.866025 0.5 370.885 57.5211)" stroke="#A2C1FD" stroke-opacity="0.5" stroke-width="0.893896"/>
<path d="M343.964 63.033L355.943 56.1171L354.545 51.0454" stroke="#BED2F8" stroke-opacity="0.5" stroke-width="0.335211"/>
<circle cx="1.38319" cy="1.38319" r="0.936241" transform="matrix(-0.866025 -0.5 -0.866025 0.5 357.045 50.4121)" stroke="#A2C1FD" stroke-opacity="0.5" stroke-width="0.893896"/>
<path d="M324.712 70.2028L313.1 63.4986L304.585 64.2807" stroke="#BED2F8" stroke-opacity="0.5" stroke-width="0.335211"/>
<circle cx="1.34084" cy="1.34084" r="0.893896" transform="matrix(-0.866025 0.5 0.866025 0.5 303.52 62.8844)" stroke="#A2C1FD" stroke-opacity="0.5" stroke-width="0.893896"/>
<path d="M296.73 90.2329V65.7136C296.73 65.3948 296.56 65.1002 296.284 64.9403L262.154 45.1502C261.544 44.797 260.785 45.2542 260.812 45.9579L261.848 72.8713C261.86 73.1908 262.042 73.4794 262.325 73.6282L295.42 91.0241C296.015 91.337 296.73 90.9054 296.73 90.2329Z" fill="#E8EEF9"/>
<ellipse cx="0.268169" cy="0.446948" rx="0.268169" ry="0.446948" transform="matrix(-1 0 0 1 263.434 48.3588)" fill="#DD6565"/>
<ellipse cx="0.335211" cy="0.446948" rx="0.335211" ry="0.446948" transform="matrix(-1 0 0 1 264.552 49.029)" fill="#F8BA00"/>
<ellipse cx="0.335211" cy="0.446948" rx="0.335211" ry="0.446948" transform="matrix(-1 0 0 1 265.668 49.6997)" fill="#4B9B08"/>
<path d="M284.543 81.2879V65.8109C284.543 65.7291 284.499 65.6539 284.427 65.6147L263.774 54.3565C263.623 54.2737 263.438 54.3873 263.444 54.5602L263.985 70.7996C263.988 70.8801 264.034 70.9529 264.105 70.9902L284.216 81.4861C284.365 81.5637 284.543 81.4558 284.543 81.2879Z" fill="white"/>
<path fill-rule="evenodd" clip-rule="evenodd" d="M280.13 68.2755C279.974 68.499 279.845 68.7173 279.748 68.91L279.748 68.9101C279.42 69.5449 278.741 70.1805 277.764 70.0234C276.786 69.8661 275.515 68.9145 274.01 66.3907C273.398 65.3646 272.798 64.839 272.221 64.6818C271.643 64.5241 271.084 64.7356 270.56 65.1952C269.51 66.1146 268.603 68.0193 267.948 69.8948L267.899 69.8377C268.555 67.9601 269.465 66.0464 270.522 65.1207C271.05 64.6578 271.617 64.4402 272.21 64.6017C272.804 64.7636 273.42 65.3055 274.042 66.3499C275.537 68.8561 276.79 69.7884 277.749 69.9426C278.709 70.097 279.379 69.4716 279.702 68.8466C279.8 68.6519 279.93 68.432 280.087 68.2071L280.13 68.2755Z" fill="#B8D1F6"/>
<path fill-rule="evenodd" clip-rule="evenodd" d="M268.867 65.0178C268.889 65.0304 268.907 65.066 268.907 65.0972L268.907 70.9213C268.907 70.9525 268.889 70.9675 268.867 70.9548C268.845 70.9422 268.827 70.9066 268.827 70.8754L268.827 65.0513C268.827 65.0201 268.845 65.0051 268.867 65.0178Z" fill="#4B9B08"/>
<path fill-rule="evenodd" clip-rule="evenodd" d="M271.368 61.7783C271.389 61.791 271.407 61.8265 271.407 61.8577L271.407 68.2848C271.407 68.316 271.389 68.331 271.368 68.3184C271.346 68.3057 271.328 68.2701 271.328 68.239L271.328 61.8119C271.328 61.7807 271.346 61.7657 271.368 61.7783Z" fill="#4B9B08"/>
<path fill-rule="evenodd" clip-rule="evenodd" d="M273.865 67.4863C273.887 67.499 273.905 67.5345 273.905 67.5657L273.905 71.8602C273.905 71.8914 273.887 71.9064 273.865 71.8937C273.843 71.8811 273.825 71.8455 273.825 71.8143L273.825 67.5199C273.825 67.4887 273.843 67.4737 273.865 67.4863Z" fill="#4B9B08"/>
<path fill-rule="evenodd" clip-rule="evenodd" d="M278.979 66.3027C279.001 66.3154 279.019 66.351 279.019 66.3821L279.019 70.6766C279.019 70.7078 279.001 70.7228 278.979 70.7102C278.957 70.6975 278.94 70.6619 278.94 70.6308L278.94 66.3363C278.94 66.3051 278.957 66.2901 278.979 66.3027Z" fill="#E15858"/>
<path fill-rule="evenodd" clip-rule="evenodd" d="M275.165 66.1049C275.187 66.1176 275.205 66.1531 275.205 66.1843L275.205 70.4788C275.205 70.51 275.187 70.525 275.165 70.5123C275.143 70.4997 275.125 70.4641 275.125 70.4329L275.125 66.1384C275.125 66.1073 275.143 66.0922 275.165 66.1049Z" fill="#4B9B08"/>
<path fill-rule="evenodd" clip-rule="evenodd" d="M277.565 64.2198C277.587 64.2325 277.605 64.268 277.605 64.2992L277.605 71.5793C277.605 71.6105 277.587 71.6256 277.565 71.6129C277.543 71.6002 277.526 71.5647 277.526 71.5335L277.526 64.2534C277.526 64.2222 277.543 64.2071 277.565 64.2198Z" fill="#4B9B08"/>
<path fill-rule="evenodd" clip-rule="evenodd" d="M270.067 65.7198C270.089 65.7324 270.106 65.768 270.106 65.7992L270.106 70.8045C270.106 70.8357 270.089 70.8507 270.067 70.8381C270.045 70.8254 270.027 70.7899 270.027 70.7587L270.027 65.7533C270.027 65.7221 270.045 65.7071 270.067 65.7198Z" fill="#E15858"/>
<path fill-rule="evenodd" clip-rule="evenodd" d="M272.666 63.0974C272.688 63.1101 272.706 63.1456 272.706 63.1768L272.706 66.6182C272.706 66.6494 272.688 66.6644 272.666 66.6518C272.644 66.6391 272.627 66.6035 272.627 66.5724L272.627 63.1309C272.627 63.0998 272.644 63.0847 272.666 63.0974Z" fill="#E15858"/>
<path fill-rule="evenodd" clip-rule="evenodd" d="M276.366 66.5124C276.387 66.525 276.405 66.5606 276.405 66.5918L276.405 69.6067C276.405 69.6378 276.387 69.6529 276.366 69.6402C276.344 69.6275 276.326 69.592 276.326 69.5608L276.326 66.5459C276.326 66.5147 276.344 66.4997 276.366 66.5124Z" fill="#E15858"/>
<path d="M268.528 65.8262L269.228 66.2303L269.228 70.2112L268.528 69.8071L268.528 65.8262Z" fill="#4B9B08"/>
<path d="M271.026 62.8618L271.726 63.2658L271.726 67.2467L271.026 66.8427L271.026 62.8618Z" fill="#4B9B08"/>
<path d="M273.525 68.5698L274.225 68.9738L274.225 71.1064L273.525 70.7024L273.525 68.5698Z" fill="#4B9B08"/>
<path d="M278.639 67.3862L279.339 67.7902L279.339 69.9229L278.639 69.5188L278.639 67.3862Z" fill="#E15858"/>
<path d="M274.826 67.1879L275.525 67.5919L275.525 69.7245L274.826 69.3205L274.826 67.1879Z" fill="#4B9B08"/>
<path d="M277.224 65.0188L277.924 65.4229L277.924 70.8255L277.224 70.4215L277.224 65.0188Z" fill="#4B9B08"/>
<path d="M269.727 66.0925L270.427 66.4966L270.427 70.4775L269.727 70.0734L269.727 66.0925Z" fill="#E15858"/>
<path d="M272.325 63.8964L273.025 64.3005L273.025 65.7222L272.325 65.3182L272.325 63.8964Z" fill="#E15858"/>
<path d="M276.026 67.027L276.726 67.431L276.726 68.8527L276.026 68.4487L276.026 67.027Z" fill="#E15858"/>
<rect width="7.74137" height="3.45075" transform="matrix(0.866025 0.5 -2.20305e-08 1 286.895 66.9067)" fill="#B9C8E6"/>
<rect width="7.74137" height="1.03523" transform="matrix(0.866025 0.5 -2.20305e-08 1 286.895 71.9102)" fill="#B9C8E6"/>
<rect width="7.74137" height="1.03523" transform="matrix(0.866025 0.5 -2.20305e-08 1 286.895 74.4982)" fill="#B9C8E6"/>
<rect width="3.54813" height="1.03523" rx="0.446948" transform="matrix(0.866025 0.5 -2.20305e-08 1 286.895 77.0864)" fill="#80D53A"/>
<rect width="3.54813" height="1.03523" rx="0.446948" transform="matrix(0.866025 0.5 -2.20305e-08 1 290.526 79.1833)" fill="#F87E7E"/>
<path d="M335.916 49.2154L350.935 40.5184L335.916 31.8215L320.865 40.5184L335.916 49.2154Z" fill="#C1D6FF"/>
<path d="M335.916 48.8944L350.678 40.358L350.935 40.5184L335.916 49.2154L320.865 40.5184L321.121 40.358L335.916 48.8944Z" fill="white"/>
<path d="M335.916 82.5592L350.935 73.8623L335.916 65.1654L320.865 73.8623L335.916 82.5592Z" fill="white"/>
<path d="M320.865 40.5184V73.862L335.916 82.5589V49.2154L320.865 40.5184Z" fill="#CFDFFF"/>
<path d="M350.934 40.5184V73.862L335.915 82.5589V49.2154L350.934 40.5184Z" fill="#2D48DD"/>
<path opacity="0.51" d="M349.94 42.7329V72.7068L336.911 80.2163V50.2424L349.94 42.7329Z" fill="#2D48DD"/>
<path d="M349.716 72.5784V42.8292L349.94 42.7329V72.7068L336.911 80.2163V79.9596L349.716 72.5784Z" fill="#EAF1FE"/>
<path d="M323.111 48.5736V49.4401L333.637 55.5375V54.639L323.111 48.5736Z" fill="#2D48DD"/>
<path d="M323.111 52.2958V53.1944L333.637 59.2597V58.3932L323.111 52.2958Z" fill="#2D48DD"/>
<path d="M323.111 56.0192V56.9177L333.637 62.9831V62.1166L323.111 56.0192Z" fill="#2D48DD"/>
<path d="M323.111 59.7416V60.6402L333.637 66.7056V65.8391L323.111 59.7416Z" fill="#2D48DD"/>
<path d="M323.111 63.4643V64.3628L333.637 70.4282V69.5617L323.111 63.4643Z" fill="#2D48DD"/>
<path d="M323.111 67.2187V68.0852L333.637 74.1827V73.2841L323.111 67.2187Z" fill="#2D48DD"/>
<mask id="mask0_204_1825" style="mask-type:alpha" maskUnits="userSpaceOnUse" x="335" y="33" width="16" height="14">
<path d="M335.913 46.9049H339.86L350.932 40.5186L338.866 33.5546H335.913V46.9049Z" fill="url(#paint1_linear_204_1825)"/>
</mask>
<g mask="url(#mask0_204_1825)">
<g opacity="0.51">
<path opacity="0.51" d="M350.932 68.5989L335.913 59.5169V49.2154L350.932 40.5184V68.5989Z" fill="#2D48DD"/>
</g>
<path d="M349.106 42.9573C349.106 42.5722 349.363 42.1229 349.716 41.9303C349.877 41.8341 350.037 41.8341 350.133 41.8982L350.551 42.155H350.294C350.294 42.1871 350.294 42.2513 350.294 42.2834C350.294 42.6685 350.037 43.1177 349.684 43.3103C349.652 43.3424 349.588 43.3424 349.556 43.3745L349.684 43.5991L349.267 43.3424C349.171 43.2782 349.106 43.1498 349.106 42.9573Z" fill="#CFDFFF"/>
<path d="M349.555 43.182C349.555 43.5671 349.811 43.7276 350.164 43.535C350.485 43.3425 350.774 42.8932 350.774 42.5081C350.774 42.123 350.517 41.9625 350.164 42.1551C349.811 42.3476 349.555 42.829 349.555 43.182Z" fill="white"/>
<path d="M349.811 43.0534C349.811 43.278 349.971 43.3743 350.164 43.2459C350.356 43.1497 350.517 42.8608 350.517 42.6362C350.517 42.4115 350.356 42.3153 350.164 42.4436C349.939 42.572 349.811 42.8287 349.811 43.0534Z" fill="#3F21D3"/>
</g>
<path d="M300.746 60.9398L288.902 54.1015L300.746 47.2632L312.59 54.1015L300.746 60.9398ZM289.237 54.1015L300.746 60.761L312.255 54.1238L300.746 47.4643L289.237 54.1015Z" fill="#C6D8FF"/>
<path d="M311.695 51.5539V49.3638L300.745 55.3976L289.795 49.3638V51.5539L300.745 57.8782L311.695 51.5539Z" fill="#4F6AFF"/>
<path d="M300.745 55.6659L289.795 49.364L300.745 43.0396L311.695 49.364L300.745 55.6659Z" fill="#A8C2F4"/>
<path opacity="0.5" d="M300.745 55.4872L289.951 49.2523L289.795 49.364L300.745 55.666L311.695 49.364L311.539 49.2523L300.745 55.4872Z" fill="white"/>
<path d="M300.746 53.2521L293.975 49.3637L300.746 45.4529L307.518 49.3637L300.746 53.2521Z" fill="#0F054C"/>
<path d="M300.858 53.3867L293.931 49.3642L294.154 28.4694H307.339L307.563 49.3642L300.858 53.3867Z" fill="url(#paint2_linear_204_1825)"/>
<g clip-path="url(#clip1_204_1825)">
<path d="M373.269 55.4654L385.113 48.6271L373.269 41.7888L361.425 48.6271L373.269 55.4654ZM384.778 48.6271L373.269 55.2867L361.76 48.6495L373.269 41.9899L384.778 48.6271Z" fill="#CADBFF"/>
<path d="M362.319 46.0795V43.8895L373.269 49.9232L384.22 43.8895V46.0795L373.269 52.4038L362.319 46.0795Z" fill="#4F6AFF"/>
<path d="M373.269 50.1916L384.22 43.8896L373.269 37.5653L362.319 43.8896L373.269 50.1916Z" fill="#A8C2F4"/>
<path opacity="0.5" d="M373.269 50.0128L384.063 43.7779L384.22 43.8896L373.269 50.1916L362.319 43.8896L362.476 43.7779L373.269 50.0128Z" fill="white"/>
<path d="M373.269 47.7778L380.04 43.8893L373.269 39.9785L366.498 43.8893L373.269 47.7778Z" fill="#0F054C"/>
<path d="M373.379 48.0237L366.452 43.8894L366.675 24.0002H379.86L380.195 43.8894L373.379 48.0237Z" fill="url(#paint3_linear_204_1825)"/>
</g>
<path d="M366.898 85.6784L378.742 92.5167L366.898 99.355L355.054 92.5167L366.898 85.6784ZM378.407 92.5167L366.898 85.8572L355.389 92.4944L366.898 99.1539L378.407 92.5167Z" fill="#CADBFF"/>
<path d="M355.726 89.8798V87.6897L366.676 93.7235L377.626 87.6897V89.8798L366.676 96.2041L355.726 89.8798Z" fill="#4F6AFF"/>
<path d="M366.676 93.9918L377.626 87.6898L366.676 81.3655L355.726 87.6898L366.676 93.9918Z" fill="#A8C2F4"/>
<path opacity="0.5" d="M366.676 93.8126L377.47 87.5777L377.626 87.6894L366.676 93.9914L355.726 87.6894L355.882 87.5777L366.676 93.8126Z" fill="white"/>
<path d="M366.677 91.5781L373.448 87.6896L366.677 83.7788L359.906 87.6896L366.677 91.5781Z" fill="#0F054C"/>
<path d="M366.79 91.7122L359.972 87.8955V67.577H373.38V87.8955L366.79 91.7122Z" fill="url(#paint4_linear_204_1825)"/>
<path d="M344.864 51.3163L347.458 49.8125V49.2523L344.864 50.7266V51.3163Z" fill="#42E8E0" fill-opacity="0.5"/>
<path d="M343.536 52.0826L344.479 51.5224V50.9621L343.536 51.4929V52.0826Z" fill="#42E8E0" fill-opacity="0.5"/>
<path d="M342.503 52.6726L343.152 52.2893V51.7291L342.503 52.0829V52.6726Z" fill="#42E8E0" fill-opacity="0.5"/>
<path d="M346.041 51.9353L347.456 51.1097V50.5495L346.041 51.3456V51.9353Z" fill="#42E8E0" fill-opacity="0.5"/>
<path d="M343.92 53.1445L345.66 52.142V51.5818L343.92 52.5843V53.1445Z" fill="#42E8E0" fill-opacity="0.5"/>
<path d="M342.888 53.734L343.536 53.3802V52.8199L342.888 53.1738V53.734Z" fill="#42E8E0" fill-opacity="0.5"/>
<path d="M341.914 54.2944L342.562 53.9405V53.3803L341.914 53.7341V54.2944Z" fill="#42E8E0" fill-opacity="0.5"/>
<path d="M346.455 52.9968L347.457 52.4071V51.8469L346.455 52.4366V52.9968Z" fill="#42E8E0" fill-opacity="0.5"/>
<path d="M345.69 53.4099L346.044 53.233V52.6433L345.69 52.8497V53.4099Z" fill="#42E8E0" fill-opacity="0.5"/>
<path d="M344.655 54.0291L345.304 53.6458V53.0855L344.655 53.4394V54.0291Z" fill="#42E8E0" fill-opacity="0.5"/>
<path d="M343.684 55.8865L347.458 53.7046V53.1444L343.684 55.2968V55.8865Z" fill="#42E8E0" fill-opacity="0.5"/>
<path d="M342.355 56.6529L343.299 56.0926V55.5324L342.355 56.0632V56.6529Z" fill="#42E8E0" fill-opacity="0.5"/>
<path d="M346.455 55.5915L347.457 55.0018V54.4416L346.455 55.0313V55.5915Z" fill="#42E8E0" fill-opacity="0.5"/>
<path d="M344.036 56.9775L346.041 55.8276V55.2379L344.036 56.4173V56.9775Z" fill="#42E8E0" fill-opacity="0.5"/>
<path d="M343.005 57.5673L343.654 57.2135V56.6238L343.005 57.0071V57.5673Z" fill="#42E8E0" fill-opacity="0.5"/>
<path d="M345.363 57.5081L347.457 56.2992V55.739L345.363 56.9479V57.5081Z" fill="#42E8E0" fill-opacity="0.5"/>
<path d="M343.477 58.5988L344.98 57.7438V57.1541L343.477 58.0386V58.5988Z" fill="#42E8E0" fill-opacity="0.5"/>
<path d="M342.061 59.4245L343.064 58.8348V58.2746L342.061 58.8643V59.4245Z" fill="#42E8E0" fill-opacity="0.5"/>
<path d="M346.749 58.0097L347.456 57.5969V57.0367L346.749 57.4495V58.0097Z" fill="#42E8E0" fill-opacity="0.5"/>
<path d="M345.422 58.7756L346.365 58.2448V57.6551L345.422 58.2154V58.7756Z" fill="#42E8E0" fill-opacity="0.5"/>
<path d="M343.536 59.8666L345.039 59.0115V58.4218L343.536 59.3064V59.8666Z" fill="#42E8E0" fill-opacity="0.5"/>
<path d="M345.306 60.1322L347.458 58.8938V58.3336L345.306 59.572V60.1322Z" fill="#42E8E0" fill-opacity="0.5"/>
<path d="M342.888 61.5471L344.893 60.3677V59.8075L342.888 60.9869V61.5471Z" fill="#42E8E0" fill-opacity="0.5"/>
<path d="M341.854 62.1374L342.473 61.7835V61.1938L341.854 61.5772V62.1374Z" fill="#42E8E0" fill-opacity="0.5"/>
<path d="M340.852 62.6972L341.501 62.3434V61.7832L340.852 62.137V62.6972Z" fill="#42E8E0" fill-opacity="0.5"/>
<path d="M346.158 60.9579L347.455 60.1913V59.6311L346.158 60.3682V60.9579Z" fill="#42E8E0" fill-opacity="0.5"/>
<path d="M340.764 53.6749L338.965 54.7069V54.1467L340.764 53.1147V53.6749Z" fill="#42E8E0" fill-opacity="0.5"/>
<path d="M340.381 55.2082L338.965 56.0043V55.4441L340.381 54.6185V55.2082Z" fill="#42E8E0" fill-opacity="0.5"/>
<path d="M339.968 56.7121L338.965 57.3018V56.7415L339.968 56.1518V56.7121Z" fill="#42E8E0" fill-opacity="0.5"/>
<path d="M340.44 57.7444L338.965 58.5994V58.0392L340.44 57.1842V57.7444Z" fill="#42E8E0" fill-opacity="0.5"/>
<path d="M339.968 59.3362L338.965 59.9259V59.3362L339.968 58.7465V59.3362Z" fill="#42E8E0" fill-opacity="0.5"/>
<path d="M340.263 60.4566L338.965 61.2232V60.6335L340.263 59.8964V60.4566Z" fill="#42E8E0" fill-opacity="0.5"/>
<path d="M339.673 62.1079L338.965 62.5207V61.931L339.673 61.5476V62.1079Z" fill="#42E8E0" fill-opacity="0.5"/>
<path d="M340.322 63.0219L338.965 63.818V63.2283L340.322 62.4617V63.0219Z" fill="#42E8E0" fill-opacity="0.5"/>
<path d="M340.263 64.3485L338.965 65.1151V64.5254L340.263 63.7882V64.3485Z" fill="#42E8E0" fill-opacity="0.5"/>
<path d="M345.215 61.4886L345.776 61.1643V60.6041L345.215 60.9284V61.4886Z" fill="#42E8E0" fill-opacity="0.5"/>
<path d="M343.593 62.4321L344.832 61.7244V61.1642L343.593 61.8719V62.4321Z" fill="#42E8E0" fill-opacity="0.5"/>
<path d="M342.562 66.796L344.655 65.5871V65.0269L342.562 66.2357V66.796Z" fill="#42E8E0" fill-opacity="0.5"/>
<path d="M341.118 67.6212L341.943 67.1494V66.5892L341.118 67.0609V67.6212Z" fill="#42E8E0" fill-opacity="0.5"/>
<path d="M338.07 114.842L339.076 114.283L338.182 114.06L338.07 114.842Z" fill="#A8C2F4"/>
<path d="M327.231 83.9465C327.231 83.4543 327.576 83.2536 328.002 83.4976L338.463 89.4855C338.892 89.731 339.24 90.3331 339.24 90.8283L339.24 113.82C339.24 114.314 338.894 114.514 338.466 114.267L328.005 108.228C327.578 107.981 327.231 107.38 327.231 106.887L327.231 83.9465Z" fill="#A8C2F4"/>
<path d="M327.453 83.444L326.448 84.0027L327.565 84.3379L327.453 83.444Z" fill="#A8C2F4"/>
<rect width="14.5891" height="24.1076" rx="0.893896" transform="matrix(0.823164 0.521589 -1.99096e-08 1 326.225 83.5868)" fill="#E8EEF9"/>
<rect width="11.8014" height="9.0149" rx="0.446948" transform="matrix(0.822749 0.511151 -2.02652e-08 1 327.246 87.1269)" fill="white"/>
<rect width="11.8063" height="5.55952" rx="0.446948" transform="matrix(0.822404 0.503725 -2.05252e-08 1 327.246 97.7487)" fill="white"/>
<rect width="5.50634" height="1.93008" rx="0.446948" transform="matrix(0.822175 0.499243 -2.0685e-08 1 327.246 105.42)" fill="#80D43A"/>
<rect width="5.56851" height="1.92947" rx="0.446948" transform="matrix(0.822166 0.499071 -2.06912e-08 1 332.378 108.382)" fill="#F68C8D"/>
<path d="M328.269 94.5177L329.546 93.7699L330.44 95.4332L331.974 94.2851L332.996 96.5839L335.167 94.0172L335.934 95.6021" stroke="#138C61" stroke-width="0.223474"/>
<rect width="6.53415" height="0.534799" rx="0.223474" transform="matrix(0.821196 0.48258 -2.12995e-08 1 328.269 99.814)" fill="#B9C8E5" fill-opacity="0.7"/>
<rect width="5.60015" height="0.536027" rx="0.268014" transform="matrix(0.821275 0.483813 -2.12529e-08 1 328.269 100.994)" fill="#B9C8E5" fill-opacity="0.7"/>
<rect width="7.46817" height="0.533837" rx="0.266919" transform="matrix(0.821133 0.481613 -2.13362e-08 1 328.269 102.174)" fill="#B9C8E5" fill-opacity="0.7"/>
<path d="M330.93 43.5736C333.877 45.194 338.105 45.194 340.992 43.7503C343.752 42.1571 343.767 39.4467 340.922 37.8043C338.078 36.1619 333.535 36.1219 330.775 37.7151C328.016 39.3082 328.085 41.9312 330.93 43.5736Z" fill="#2D48DD"/>
<path d="M331.063 42.621C333.85 44.2298 338.3 44.2689 341.003 42.7083C343.706 41.1477 343.638 38.5784 340.852 36.9695C338.065 35.3607 333.615 35.3216 330.912 36.8822C328.209 38.4428 328.277 41.0121 331.063 42.621Z" fill="#78A4FB"/>
<path fill-rule="evenodd" clip-rule="evenodd" d="M333.883 43.6364L332.894 39.6219L334.835 39.1486L335.141 37.8762L336.659 37.4482L340.669 39.7638L340.989 42.716C339.086 43.8093 336.323 44.1126 333.883 43.6364Z" fill="#3550EA"/>
<path d="M340.368 40.3826L339.217 39.7181L334.807 42.2638C334.62 42.1555 334.469 42.0286 334.357 41.8833C334.239 41.741 334.223 41.6451 334.309 41.5957L335.264 41.0439C334.642 40.9568 334.105 40.7826 333.652 40.5212C333.2 40.2599 332.942 39.9815 332.88 39.6859C332.829 39.3905 332.985 39.1376 333.349 38.9274C333.628 38.7667 333.976 38.6803 334.394 38.6683C334.215 38.447 334.141 38.2314 334.174 38.0214C334.211 37.8083 334.37 37.6214 334.648 37.4606C334.926 37.2999 335.297 37.2199 335.759 37.2209C336.226 37.225 336.664 37.345 337.073 37.5808C337.371 37.7529 337.536 37.9222 337.567 38.0889C337.604 38.2587 337.529 38.3977 337.342 38.5059C336.962 38.7253 336.44 38.7333 335.777 38.5298C335.758 38.4449 335.789 38.3572 335.868 38.2669C336.239 38.3141 336.505 38.2914 336.665 38.1986C336.756 38.1461 336.801 38.0884 336.799 38.0256C336.803 37.9597 336.744 37.8917 336.623 37.8216C336.501 37.7515 336.318 37.7201 336.074 37.7274C335.829 37.7346 335.603 37.7985 335.394 37.9191C335.19 38.0366 335.077 38.169 335.054 38.3163C335.041 38.4636 335.099 38.6054 335.228 38.7415C335.589 38.8137 335.95 38.9205 336.313 39.0617C336.33 39.2941 336.262 39.4865 336.108 39.639C335.701 39.4785 335.31 39.3699 334.933 39.3132C334.568 39.2567 334.296 39.2794 334.12 39.3814C333.948 39.4803 333.87 39.5957 333.884 39.7277C333.904 39.8628 334.03 39.9973 334.262 40.1312C334.499 40.2682 334.798 40.3666 335.158 40.4262C335.519 40.4859 335.883 40.5016 336.252 40.4735L338.389 39.24L337.817 38.9102C337.843 38.6656 337.982 38.4707 338.234 38.3254L340.826 39.8217C340.783 40.0441 340.63 40.2311 340.368 40.3826Z" fill="white"/>
<path d="M333.875 44.575V43.6469C337.484 44.1625 340.062 43.1313 340.991 42.7188V43.75C338.619 44.9875 334.597 44.8844 333.875 44.575Z" fill="#1647A9"/>
<defs>
<linearGradient id="paint0_linear_204_1825" x1="28.8821" y1="49.6304" x2="40.4363" y2="65.9247" gradientUnits="userSpaceOnUse">
<stop stop-color="#7B90FF"/>
<stop offset="1" stop-color="#4059E1"/>
</linearGradient>
<linearGradient id="paint1_linear_204_1825" x1="350.945" y1="40.2325" x2="335.898" y2="40.2325" gradientUnits="userSpaceOnUse">
<stop/>
<stop offset="0.0469354" stop-color="#2F2F2F"/>
<stop offset="0.0981487" stop-color="#5A5A5A"/>
<stop offset="0.155" stop-color="#828282"/>
<stop offset="0.2161" stop-color="#A4A4A4"/>
<stop offset="0.2828" stop-color="#C0C0C0"/>
<stop offset="0.3571" stop-color="#D7D7D7"/>
<stop offset="0.442" stop-color="#E9E9E9"/>
<stop offset="0.5443" stop-color="#F6F6F6"/>
<stop offset="0.6813" stop-color="#FDFDFD"/>
<stop offset="1" stop-color="white"/>
</linearGradient>
<linearGradient id="paint2_linear_204_1825" x1="300.747" y1="31.3745" x2="300.411" y2="52.9398" gradientUnits="userSpaceOnUse">
<stop stop-color="white" stop-opacity="0"/>
<stop offset="1" stop-color="#3CB6FA"/>
</linearGradient>
<linearGradient id="paint3_linear_204_1825" x1="373.268" y1="26.0115" x2="372.932" y2="47.5767" gradientUnits="userSpaceOnUse">
<stop stop-color="white" stop-opacity="0"/>
<stop offset="1" stop-color="#3CB6FA"/>
</linearGradient>
<linearGradient id="paint4_linear_204_1825" x1="366.676" y1="69.5976" x2="366.343" y2="91.2633" gradientUnits="userSpaceOnUse">
<stop stop-color="white" stop-opacity="0"/>
<stop offset="1" stop-color="#3CB6FA"/>
</linearGradient>
<clipPath id="clip0_204_1825">
<path d="M231.032 0H384.277C387.973 0 390.968 2.99555 390.968 6.69074V155H231.032V0Z" fill="white"/>
</clipPath>
<clipPath id="clip1_204_1825">
<rect width="23.6882" height="35.3089" fill="white" transform="matrix(-1 0 0 1 385 24)"/>
</clipPath>
</defs>
</svg>
