<svg width="165" height="60" viewBox="0 0 165 60" fill="none" xmlns="http://www.w3.org/2000/svg">
<path d="M80.9936 10.0344C60.1313 23.7303 39.269 0.491645 2.83984 13.0779V49.0615C39.269 36.4752 60.1313 59.7138 80.9936 46.0496V10.0344Z" fill="#4AA435"/>
<path d="M162.503 10.0335H80.9961V45.9219H162.503V10.0335Z" fill="#005DA0"/>
<path d="M12.1266 36.3166H9.06641V22.3671H11.9935V24.0791C12.2862 23.445 12.7386 22.9377 13.3772 22.5573C14.0159 22.1769 14.6545 21.9866 15.3198 21.9866C16.9696 21.9866 18.0872 22.7475 18.6726 24.301C19.4976 22.7475 20.695 21.9866 22.265 21.9866C23.4092 21.9866 24.3938 22.4305 25.1921 23.3182C25.9904 24.2059 26.3896 25.5374 26.3896 27.2811V36.3166H23.4092V28.042C23.4092 27.2494 23.2496 26.6153 22.9036 26.1398C22.5843 25.6642 22.0787 25.4106 21.3869 25.4106C20.7482 25.4106 20.2426 25.6642 19.8701 26.2032C19.4976 26.7422 19.2847 27.3762 19.2847 28.1688V36.3166H16.2511V28.042C16.2511 27.2494 16.0915 26.6153 15.7455 26.1398C15.3996 25.6642 14.894 25.4106 14.2554 25.4106C13.6167 25.4106 13.0845 25.6642 12.712 26.2032C12.3128 26.7105 12.1266 27.3762 12.1266 28.1688" fill="white"/>
<path d="M30.3007 24.0473C31.4183 22.6524 32.8553 21.9549 34.5583 21.9549C36.2614 21.9549 37.6717 22.6524 38.8159 24.0473C39.9335 25.4423 40.519 27.2177 40.519 29.3418C40.519 31.466 39.9602 33.2414 38.8159 34.6363C37.6717 36.0313 36.2614 36.7287 34.5583 36.7287C32.8553 36.7287 31.4449 36.0313 30.3007 34.6363C29.1831 33.2414 28.5977 31.466 28.5977 29.3418C28.6243 27.2177 29.1831 25.4423 30.3007 24.0473ZM32.5359 32.2585C33.0948 32.956 33.7866 33.3048 34.5849 33.3048C35.3832 33.3048 36.0751 32.956 36.6339 32.2585C37.1927 31.5611 37.4854 30.5783 37.4854 29.3418C37.4854 28.1054 37.1927 27.1226 36.6339 26.4251C36.0751 25.7276 35.3832 25.3789 34.5849 25.3789C33.7866 25.3789 33.0948 25.7276 32.5359 26.4251C31.9771 27.1226 31.6844 28.1054 31.6844 29.3418C31.6844 30.61 31.9505 31.5611 32.5359 32.2585Z" fill="white"/>
<path d="M46.0016 28.2956V36.3166H42.9414V22.3671H45.9217V24.0791C46.2411 23.4133 46.6934 22.8743 47.3055 22.5256C47.8909 22.1769 48.5295 21.9866 49.1948 21.9866C50.5253 21.9866 51.5631 22.4939 52.2549 23.5401C52.9468 24.5546 53.2927 25.8862 53.2927 27.5348V36.3166H50.206V28.1688C50.206 27.3445 50.0197 26.6788 49.7004 26.1715C49.3544 25.6642 48.8222 25.4106 48.1304 25.4106C47.4917 25.4106 46.9595 25.696 46.587 26.2349C46.1878 26.7739 46.0016 27.4713 46.0016 28.2956Z" fill="white"/>
<path d="M63.9893 31.4025L66.5439 32.3219C66.2246 33.6218 65.6392 34.668 64.7344 35.4923C63.8297 36.3166 62.7121 36.7287 61.3816 36.7287C59.7583 36.7287 58.3746 36.0629 57.2304 34.6997C56.0862 33.3364 55.5273 31.5293 55.5273 29.2784C55.5273 27.1225 56.0862 25.3471 57.1772 23.9839C58.2948 22.6206 59.5987 21.9232 61.0888 21.9232C62.8451 21.9232 64.2022 22.5572 65.2134 23.8571C66.198 25.1569 66.7036 26.9006 66.7036 29.1516V29.6588V30.1027L66.677 30.2929H58.5609C58.5875 31.2123 58.8802 31.9732 59.439 32.5755C59.9978 33.1779 60.6631 33.4949 61.4348 33.4949C62.7121 33.5267 63.5902 32.7975 63.9893 31.4025ZM58.6141 27.7566H63.6966C63.67 26.9957 63.4305 26.33 63.0314 25.791C62.6056 25.252 61.9936 24.9984 61.1687 24.9984C60.4236 24.9984 59.8382 25.2837 59.3592 25.8544C58.9068 26.4251 58.6673 27.0591 58.6141 27.7566Z" fill="white"/>
<path d="M72.9057 41.8322H69.6327L72.3203 34.5721L67.5039 22.3663H70.9366L73.9435 30.5458L76.7376 22.3663H80.0106" fill="white"/>
<path d="M87.9379 25.4741C87.113 25.4741 86.4478 25.8228 85.889 26.5203C85.3302 27.2178 85.0641 28.1689 85.0641 29.3736C85.0641 30.5783 85.3568 31.5294 85.9156 32.2586C86.4744 32.9561 87.1663 33.3365 87.9912 33.3365C88.7096 33.3365 89.2951 33.1146 89.7208 32.6391C90.1466 32.1635 90.4393 31.6245 90.599 30.9905L93.2866 32.1001C93.0205 33.3999 92.4084 34.4779 91.4771 35.429C90.5457 36.3484 89.3749 36.8239 87.9646 36.8239C86.2615 36.8239 84.8512 36.1264 83.7069 34.6998C82.5627 33.3048 82.0039 31.5294 82.0039 29.4053C82.0039 27.2812 82.5627 25.5058 83.7069 24.1108C84.8246 22.7158 86.2349 22.0184 87.8847 22.0184C89.3217 22.0184 90.5191 22.4939 91.4239 23.3816C92.3552 24.301 92.9406 25.4107 93.2067 26.7105L90.4659 27.8518C90.0934 26.2666 89.2418 25.4741 87.9379 25.4741Z" fill="white"/>
<path d="M96.2421 24.0791C97.3597 22.6841 98.7967 21.9866 100.5 21.9866C102.203 21.9866 103.613 22.6841 104.757 24.0791C105.902 25.474 106.46 27.2494 106.46 29.3736C106.46 31.4977 105.902 33.2731 104.757 34.6681C103.64 36.063 102.203 36.7605 100.5 36.7605C98.7967 36.7605 97.3863 36.063 96.2421 34.6681C95.1245 33.2731 94.5391 31.4977 94.5391 29.3736C94.5657 27.2494 95.1245 25.474 96.2421 24.0791ZM98.4507 32.322C99.0096 33.0195 99.7014 33.3682 100.5 33.3682C101.298 33.3682 101.99 33.0195 102.549 32.322C103.108 31.6245 103.4 30.6417 103.4 29.4053C103.4 28.1688 103.108 27.186 102.549 26.4885C101.99 25.7911 101.298 25.4423 100.5 25.4423C99.7014 25.4423 99.0096 25.7911 98.4507 26.4885C97.8919 27.186 97.5992 28.1688 97.5992 29.4053C97.6258 30.6417 97.8919 31.6245 98.4507 32.322Z" fill="white"/>
<path d="M111.943 28.3274V36.3484H108.883V22.3988H111.863V24.1108C112.182 23.445 112.635 22.9061 113.247 22.5573C113.832 22.2086 114.471 22.0184 115.136 22.0184C116.467 22.0184 117.504 22.5256 118.196 23.5718C118.888 24.6181 119.234 25.9179 119.234 27.5665V36.3484H116.174V28.2006C116.174 27.3763 115.988 26.7105 115.668 26.2032C115.322 25.696 114.79 25.4424 114.098 25.4424C113.46 25.4424 112.928 25.7277 112.555 26.2666C112.129 26.8056 111.943 27.5031 111.943 28.3274Z" fill="white"/>
<path d="M126.097 18.2451V22.3983H128.386V25.7271H126.097V31.5606C126.097 32.1313 126.204 32.5751 126.417 32.797C126.63 33.0507 126.976 33.1775 127.428 33.1775C127.854 33.1775 128.146 33.1458 128.359 33.0507V36.1576C127.907 36.3795 127.348 36.5063 126.63 36.5063C125.512 36.5063 124.66 36.1259 123.995 35.365C123.357 34.6041 123.037 33.5579 123.037 32.1947V25.6954H120.988V22.3666H121.574C122.133 22.3666 122.585 22.1763 122.878 21.7642C123.17 21.3521 123.33 20.8131 123.33 20.1473V18.1817" fill="white"/>
<path d="M137.755 22.3674V26.1718C137.435 26.1084 137.143 26.045 136.823 26.045C135.945 26.045 135.253 26.362 134.694 26.9644C134.162 27.5668 133.896 28.5813 133.896 29.9762V36.3486H130.836V22.3991H133.816V24.4598C134.375 23.0015 135.439 22.2723 137.036 22.2723C137.196 22.304 137.435 22.3357 137.755 22.3674Z" fill="white"/>
<path d="M140.629 24.0791C141.746 22.6841 143.183 21.9866 144.886 21.9866C146.589 21.9866 148 22.6841 149.144 24.0791C150.262 25.474 150.847 27.2494 150.847 29.3736C150.847 31.4977 150.288 33.2731 149.144 34.6681C148.026 36.063 146.589 36.7605 144.886 36.7605C143.183 36.7605 141.773 36.063 140.629 34.6681C139.511 33.2731 138.926 31.4977 138.926 29.3736C138.952 27.2494 139.511 25.474 140.629 24.0791ZM142.864 32.322C143.423 33.0195 144.115 33.3682 144.913 33.3682C145.711 33.3682 146.377 33.0195 146.962 32.322C147.521 31.6245 147.814 30.6417 147.814 29.4053C147.814 28.1688 147.521 27.186 146.962 26.4885C146.403 25.7911 145.711 25.4423 144.913 25.4423C144.115 25.4423 143.423 25.7911 142.864 26.4885C142.305 27.186 142.013 28.1688 142.013 29.4053C142.013 30.6417 142.279 31.6245 142.864 32.322Z" fill="white"/>
<path d="M156.326 15.8367H153.266V36.3489H156.326V15.8367Z" fill="white"/>
</svg>
