<svg width="23" height="22" viewBox="0 0 23 22" fill="none" xmlns="http://www.w3.org/2000/svg">
<g clip-path="url(#clip0_51207_4716)">
<path d="M2.6385 15.2281C-0.879536 11.7491 -0.879465 6.0883 2.6385 2.60926C6.15662 -0.869754 11.8809 -0.869754 15.399 2.60926C18.3836 5.56074 18.8357 9.95034 16.7563 13.3781C16.7563 13.3781 16.6069 13.6259 16.8086 13.8252C17.9595 14.9633 21.4122 18.3776 21.4122 18.3776C22.3285 19.2837 22.5466 20.5507 21.734 21.3543L21.5942 21.4926C20.7816 22.2963 19.5003 22.0806 18.5841 21.1745C18.5841 21.1745 15.1387 17.7673 13.9902 16.6316C13.7788 16.4226 13.5283 16.5703 13.5283 16.5703C10.0621 18.6265 5.62314 18.1796 2.6385 15.2281ZM13.7332 13.5808C16.3327 11.0101 16.3326 6.82741 13.7331 4.25678C11.1336 1.68622 6.9039 1.68615 4.30446 4.25678C1.70494 6.82735 1.70494 11.0101 4.30446 13.5808C6.90396 16.1512 11.1336 16.1512 13.7332 13.5808Z" fill="#F6F6F6"/>
<path d="M13.1529 8.38848C13.2738 8.38848 13.3968 8.36499 13.5154 8.31548C13.989 8.11724 14.2106 7.57691 14.0101 7.1085C12.7503 4.16446 9.30339 2.78287 6.3264 4.02866C5.8528 4.22687 5.63123 4.76724 5.83167 5.23563C6.03216 5.70403 6.57848 5.92299 7.05228 5.72485C9.08345 4.87492 11.4354 5.81758 12.2948 7.8262C12.4452 8.17749 12.79 8.38848 13.1529 8.38848Z" fill="#F6F6F6"/>
</g>
<defs>
<clipPath id="clip0_51207_4716">
<rect width="22.2372" height="22" fill="white"/>
</clipPath>
</defs>
</svg>
